<svg width="100" height="100" viewBox="0 0 100 100" fill="none" xmlns="http://www.w3.org/2000/svg">
<path fill-rule="evenodd" clip-rule="evenodd" d="M0 50C0 22.3858 22.3858 0 50 0C77.6142 0 100 22.3858 100 50C100 77.6142 77.6142 100 50 100C22.3858 100 0 77.6142 0 50ZM50 25C63.75 25 75 36.25 75 50C75 62.5 65.9375 73.125 53.4375 75V57.1875H59.375L60.625 50H53.75V45.3125C53.75 43.4375 54.6875 41.5625 57.8125 41.5625H60.9375V35.3125C60.9375 35.3125 58.125 34.6875 55.3125 34.6875C49.6875 34.6875 45.9375 38.125 45.9375 44.375V50H39.6875V57.1875H45.9375V74.6875C34.0625 72.8125 25 62.5 25 50C25 36.25 36.25 25 50 25Z" fill="white"/>
</svg>
