<svg id="Capa_1" enable-background="new 0 0 512 512" height="512" viewBox="0 0 512 512" width="512" xmlns="http://www.w3.org/2000/svg" xmlns:xlink="http://www.w3.org/1999/xlink"><linearGradient id="SVGID_1_" gradientUnits="userSpaceOnUse" x1="53.421" x2="412.805" y1="410.366" y2="50.982"><stop offset="0" stop-color="#d1ddff" stop-opacity="0"/><stop offset="1" stop-color="#b6c4ff"/></linearGradient><g><g><path d="m16.074 302.88c18.727 64.003 72.707 194.564 163.922 182.845 91.486-11.755 55.758-129.725 139.508-145.894 36.867-7.118 61.857 56.689 98.806 54.704 47.588-2.557 71.81-49.663 85.108-89.264 28.197-83.968-14.029-226.352-112.858-251.011-86.244-21.519-96.332 83.855-171.322 53.248-42.149-17.203-37.938-68.576-89.272-78.942-155.299-31.36-138.811 189.15-113.892 274.314z" fill="url(#SVGID_1_)"/></g><g><g><path d="m477.246 288.672-30.556-26.645c14.99-20.443 21.309-35.446 21.695-36.379 1.054-2.55-.158-5.47-2.708-6.527-2.552-1.055-5.475.156-6.532 2.703-.034.083-3.515 8.387-11.383 20.848-7.248 11.481-19.814 28.948-38.513 46.954-17.12 16.486-36.442 30.681-57.596 42.337l-73.655-172.373c5.787-1.041 10.464-6.147 10.286-12.627l-.11-3.993 3.407-1.005c8.41-2.479 11.708-12.63 6.362-19.579l-1.981-2.575 1.981-2.575c5.347-6.949 2.048-17.1-6.362-19.579l-3.407-1.005.11-3.993c.241-8.764-8.394-15.038-16.655-12.1l-3.587 1.275-1.748-2.55c-4.957-7.232-15.63-7.232-20.587 0l-1.748 2.55-3.587-1.276c-8.261-2.938-16.896 3.336-16.655 12.1l.11 3.993-3.407 1.005c-8.41 2.479-11.708 12.63-6.362 19.579l1.982 2.575-1.982 2.575c-5.347 6.949-2.048 17.1 6.362 19.579l3.407 1.005-.11 3.993c-.178 6.48 4.499 11.586 10.286 12.627l-30.767 72.004c-5.078-2.08-9.617-4.083-11.29-4.791-43.752-18.522-83.323-48.556-117.613-89.267-1.778-2.112-4.933-2.382-7.045-.603s-2.382 4.933-.603 7.045c9.994 11.865 20.431 22.851 31.283 32.941l-26.782 32.371c-2.349 2.839-.924 7.158 2.654 8.042l19.069 4.708 8.196 17.849c1.538 3.349 6.047 3.94 8.396 1.101l27.307-33.005c9.121 6.208 18.474 11.863 28.047 16.957l-16.668 38.197c-1.474 3.378 1.088 7.135 4.771 6.996l19.627-.74 9.686 11.264-68.55 160.426c-1.829 4.28-.279 9.255 3.668 11.721 16.167 10.098 61.718 33.33 138.612 33.33 76.844 0 122.426-23.234 138.607-33.332 3.95-2.465 5.501-7.442 3.672-11.723l-24.694-57.791c1.657.052 3.337-.701 4.357-2.277l10.667-16.492 19.546-1.929c3.667-.362 5.696-4.432 3.778-7.579l-21.914-35.942c8.258-6.191 16.146-12.821 23.646-19.864l30.898 26.943c2.778 2.422 7.132 1.109 8.108-2.444l5.201-18.94 18.056-7.731c3.387-1.447 4.095-5.94 1.317-8.362zm-275.305-54.047-.091.212c-.464-.11-.357-.174.091-.212z" fill="#0000cb" opacity=".1"/><g><path d="m452.672 299.708 5.201-18.94 18.056-7.731c3.388-1.451 4.096-5.943 1.318-8.365l-34.799-30.344c-2.081-1.815-5.24-1.599-7.055.482l-26.11 29.943c-1.815 2.081-1.599 5.24.482 7.055l34.799 30.344c2.777 2.423 7.132 1.11 8.108-2.444z" fill="#6582fd"/><path d="m377.943 357.016 10.667-16.492 19.546-1.93c3.667-.362 5.696-4.432 3.778-7.579l-24.035-39.421c-1.438-2.358-4.514-3.104-6.872-1.666l-33.921 20.682c-2.358 1.438-3.104 4.514-1.666 6.872l24.035 39.421c1.919 3.147 6.466 3.207 8.468.113z" fill="#fff"/><path d="m289.276 391.455 14.806-12.905 19.319 3.542c3.625.665 6.699-2.687 5.724-6.241l-12.216-44.525c-.731-2.663-3.482-4.229-6.145-3.499l-38.313 10.512c-2.663.731-4.229 3.482-3.499 6.145l12.217 44.525c.975 3.554 5.329 4.867 8.107 2.446z" fill="#6582fd"/></g><g><path d="m152.957 246.137 19.627-.74 12.806 14.893c2.403 2.794 6.9 2.117 8.374-1.26l18.466-42.317c1.104-2.531-.052-5.478-2.583-6.582l-36.413-15.889c-2.531-1.104-5.478.052-6.582 2.583l-18.466 42.317c-1.474 3.377 1.088 7.134 4.771 6.995z" fill="#fff"/><path d="m73.839 193.334 19.069 4.708 8.196 17.849c1.538 3.349 6.047 3.94 8.396 1.101l29.432-35.573c1.76-2.128 1.463-5.279-.665-7.04l-30.61-25.326c-2.128-1.76-5.279-1.463-7.04.665l-29.432 35.573c-2.349 2.84-.924 7.159 2.654 8.043z" fill="#6582fd"/></g><g><g><g><path d="m275.733 130.289h-39.464l-122.549 286.799c-1.829 4.28-.279 9.255 3.668 11.721 16.167 10.098 61.718 33.33 138.612 33.33 76.844 0 122.426-23.234 138.607-33.332 3.95-2.465 5.501-7.442 3.672-11.723z" fill="#6582fd"/><g fill="#fff"><path d="m321.63 237.71c-3.76 2.03-8.06 3.18-12.64 3.18-14.73 0-26.67-11.94-26.67-26.68 0-11.85 7.73-21.9 18.43-25.37z"/><path d="m327.891 252.353c-28.393 25.417-91.616 72.889-181.517 88.316l-32.654 76.419c-1.829 4.28-.279 9.255 3.668 11.721 16.167 10.098 61.718 33.33 138.612 33.33 76.844 0 122.426-23.234 138.607-33.332 3.95-2.465 5.501-7.442 3.672-11.723z"/><path d="m237.389 209.796 2.249-14.518c1.189-7.674-5.699-14.149-13.285-12.489l-13.809 3.022-23.084 54.023 5.222 10.163c3.549 6.907 12.927 8.097 18.088 2.295l9.765-10.977 14.503-2.347c7.666-1.241 11.696-9.792 7.773-16.494z"/></g><path d="m379.4 372.89c-7.31 9.31-15.68 19.16-25.2 29.25-20.63 21.86-43.54 41.55-68.36 58.78-9.36.78-19.31 1.22-29.84 1.22-16.83 0-32.16-1.11-46.01-2.96 9.77-4.78 19.3-9.92 28.57-15.41 31.59-18.7 60.3-41.51 85.33-67.8 15.18-15.94 27.61-31.8 37.27-45.75z" fill="#6582fd"/><path d="m252.621 329.444-13.283-.471c-7.021-.249-11.603-7.47-8.838-13.929l5.232-12.218-3.657-12.778c-1.933-6.754 3.519-13.344 10.516-12.709l13.237 1.2 11.023-7.427c5.827-3.926 13.778-.776 15.337 6.074l2.949 12.96 10.469 8.188c5.534 4.328 4.996 12.864-1.037 16.463l-11.414 6.809-4.553 12.487c-2.406 6.6-10.69 8.726-15.978 4.101z" fill="#0000cb"/><path d="m351.82 308.37c-13.79 11.84-31.47 25.33-53.06 38.59-34.25 21.05-71.44 37.29-110.53 48.28-23.07 6.49-46.83 11.15-71.13 13.95l18.38-43.02c14.23-2.43 28.21-5.58 41.92-9.43 35.54-10 69.32-24.75 100.42-43.86 25.14-15.45 44.28-31.11 57.43-43.29z" fill="#6582fd"/></g><g><path d="m295.962 95.813 1.981-2.575c5.347-6.949 2.048-17.1-6.362-19.579l-3.407-1.004.11-3.993c.241-8.764-8.394-15.038-16.655-12.1l-3.587 1.276-1.748-2.55c-4.957-7.232-15.63-7.232-20.587 0l-1.748 2.55-3.587-1.276c-8.261-2.937-16.896 3.336-16.655 12.1l.11 3.993-3.407 1.004c-8.41 2.479-11.708 12.63-6.362 19.579l1.981 2.575-1.981 2.575c-5.347 6.949-2.048 17.1 6.362 19.579l3.407 1.004-.11 3.993c-.241 8.764 8.394 15.038 16.655 12.1l3.587-1.276 1.748 2.55c4.957 7.232 15.63 7.232 20.587 0l1.748-2.55 3.587 1.276c8.261 2.938 16.896-3.336 16.655-12.1l-.11-3.993 3.407-1.004c8.41-2.479 11.708-12.63 6.362-19.579z" fill="#fff"/><path d="m279.613 95.813 1.171-1.522c3.159-4.106 1.21-10.104-3.759-11.569l-2.013-.594.065-2.359c.142-5.179-4.96-8.886-9.841-7.15l-2.12.754-1.033-1.507c-2.929-4.274-9.236-4.274-12.164 0l-1.033 1.507-2.12-.754c-4.881-1.736-9.983 1.971-9.841 7.15l.065 2.359-2.013.594c-4.969 1.465-6.918 7.463-3.759 11.569l1.171 1.522-1.171 1.522c-3.159 4.106-1.21 10.104 3.759 11.569l2.013.594-.065 2.359c-.142 5.179 4.96 8.886 9.841 7.15l2.12-.754 1.033 1.507c2.929 4.274 9.236 4.274 12.164 0l1.033-1.507 2.12.754c4.881 1.736 9.983-1.971 9.841-7.15l-.065-2.359 2.013-.594c4.969-1.465 6.918-7.463 3.759-11.569z" fill="#6582fd"/><path d="m480.532 260.904-30.934-26.974c13.045-18.56 18.54-31.695 18.782-32.279 1.054-2.551-.158-5.471-2.708-6.527-2.549-1.055-5.474.155-6.532 2.703-.056.134-5.391 12.821-17.833 30.507-3.452-.752-7.202.346-9.683 3.191l-26.109 29.942c-1.757 2.014-2.623 4.59-2.441 7.255.053.771.201 1.52.421 2.241-5.271 4.786-10.796 9.412-16.503 13.817-.328-.116-.663-.219-1.006-.302-2.596-.629-5.281-.21-7.562 1.18l-4.52 2.755c-2.358 1.438-3.104 4.514-1.667 6.872 1.438 2.358 4.514 3.104 6.872 1.667l4.52-2.755 24.035 39.421-19.546 1.93c-1.516.149-2.88.981-3.707 2.26l-8.774 13.562-80.897-189.322c-1.085-2.539-4.023-3.718-6.563-2.633-2.539 1.085-3.718 4.023-2.633 6.563l108.137 253.07c.868 2.032.145 4.353-1.721 5.517-15.696 9.793-60.364 32.573-135.961 32.573-75.65 0-120.285-22.778-135.964-32.571-1.864-1.165-2.587-3.484-1.719-5.515l118.92-278.305c1.614-.097 3.226-.411 4.789-.964 3.293 4.385 8.461 6.98 13.976 6.98 5.513 0 10.681-2.596 13.974-6.98 5.429 1.922 11.449 1.051 16.108-2.335 4.666-3.39 7.357-8.856 7.198-14.621l-.004-.151c5.397-1.69 9.646-5.886 11.398-11.277 1.722-5.298.814-11.08-2.419-15.587 3.233-4.507 4.141-10.289 2.419-15.586-1.752-5.391-6.001-9.588-11.398-11.278l.004-.15c.159-5.765-2.532-11.231-7.197-14.621-4.662-3.387-10.683-4.258-16.109-2.336-3.293-4.385-8.461-6.98-13.974-6.98-5.513 0-10.682 2.596-13.975 6.98-5.429-1.923-11.45-1.05-16.109 2.335-4.666 3.39-7.356 8.855-7.198 14.621l.004.15c-5.398 1.69-9.646 5.887-11.398 11.278-1.721 5.298-.814 11.079 2.418 15.586-3.232 4.507-4.14 10.289-2.418 15.586 1.751 5.391 6 9.587 11.398 11.278l-.004.15c-.158 5.765 2.533 11.231 7.199 14.621.47.342.957.65 1.453.94l-26.657 62.385-25.49-11.119c-3.056-1.329-6.421-.995-9.094.589-7.143-3.923-14.209-8.203-21.091-12.78-.201-2.611-1.412-5.141-3.584-6.938l-30.61-25.325c-2.058-1.703-4.658-2.502-7.315-2.251-.449.042-.888.125-1.32.224-9.586-9.098-18.954-19.047-27.875-29.636-1.778-2.112-4.934-2.381-7.045-.602s-2.381 4.934-.602 7.045c8.85 10.504 18.132 20.406 27.638 29.5l-26.991 32.623c-2.207 2.667-2.877 6.221-1.792 9.508 1.084 3.288 3.739 5.745 7.099 6.575l16.729 4.131 7.19 15.66c1.444 3.146 4.355 5.292 7.788 5.742.442.058.883.087 1.321.087 2.959 0 5.761-1.304 7.684-3.627l27.625-33.389c6.366 4.179 12.883 8.118 19.463 11.761l-16.83 38.583c-1.39 3.174-1.056 6.778.894 9.641 1.95 2.862 5.178 4.49 8.645 4.361l17.213-.649 6.087 7.073-67.327 157.563c-2.818 6.594-.455 14.133 5.617 17.926 16.41 10.25 63.025 34.089 141.262 34.089 78.182 0 124.828-23.84 141.255-34.09 6.076-3.792 8.44-11.333 5.622-17.93l-22.715-53.158c.759-.637 1.43-1.382 1.977-2.229l9.359-14.469 17.147-1.693c3.444-.34 6.423-2.392 7.967-5.49 1.545-3.098 1.392-6.711-.41-9.668l-22.202-36.413c5.505-4.285 10.84-8.765 15.951-13.393l31.325 27.316c1.854 1.616 4.174 2.468 6.551 2.468.969 0 1.947-.142 2.907-.431 3.313-.999 5.84-3.588 6.757-6.926 0 0 0 0 0-.001l4.563-16.616 15.841-6.782c3.183-1.362 5.403-4.217 5.942-7.637.537-3.416-.699-6.816-3.308-9.09zm-255.291-146.729-3.407-1.004c-2.402-.708-4.224-2.48-4.998-4.862s-.342-4.887 1.186-6.872l1.981-2.575c1.383-1.797 1.383-4.3 0-6.098l-1.981-2.576c-1.527-1.985-1.959-4.489-1.186-6.871.774-2.382 2.596-4.155 4.998-4.863l3.407-1.004c2.176-.641 3.647-2.667 3.584-4.934l-.11-3.993c-.069-2.504 1.054-4.784 3.08-6.256s4.543-1.835 6.901-.997l3.588 1.276c2.137.759 4.518-.014 5.8-1.885l1.748-2.55c1.416-2.066 3.665-3.251 6.169-3.251 2.505 0 4.753 1.185 6.169 3.251l1.748 2.55c1.282 1.871 3.663 2.644 5.799 1.884l3.588-1.276c2.36-.839 4.875-.476 6.902.997 2.025 1.472 3.147 3.752 3.079 6.256l-.109 3.993c-.063 2.267 1.409 4.292 3.584 4.933l3.407 1.004c2.402.708 4.225 2.48 4.998 4.862.774 2.382.342 4.887-1.186 6.872l-1.981 2.575c-1.383 1.797-1.383 4.3 0 6.098l1.981 2.575c1.527 1.985 1.96 4.49 1.186 6.873-.773 2.381-2.596 4.154-4.998 4.862l-3.407 1.004c-2.175.641-3.646 2.666-3.584 4.933l.109 3.994c.068 2.503-1.054 4.784-3.08 6.256-2.025 1.473-4.541 1.835-6.901.996l-3.588-1.276c-2.132-.758-4.517.013-5.799 1.884l-1.748 2.551c-1.416 2.066-3.664 3.25-6.169 3.25s-4.753-1.185-6.168-3.25l-1.748-2.551c-.953-1.39-2.511-2.174-4.126-2.174-.559 0-1.125.094-1.674.29l-3.588 1.276c-2.36.839-4.875.476-6.901-.996s-3.149-3.752-3.081-6.256l.11-3.993c.063-2.265-1.408-4.291-3.584-4.932zm-119.594 99.63-8.196-17.85c-.636-1.384-1.867-2.403-3.345-2.768l-19.068-4.708 29.432-35.573 30.61 25.325zm70.723 28.334c-.993-1.154-2.459-1.793-3.979-1.735l-19.619.736 18.439-42.273c.008-.014.017-.026.025-.04l25.547 11.144-15.958 37.347zm279.534 34.033c-1.4.599-2.45 1.804-2.854 3.272l-5.201 18.94-34.798-30.344 26.11-29.943 34.799 30.344z" fill="#0000cb"/></g></g></g><path d="m223.065 417.494-8.938 8.326c-4.724 4.401-12.395 2.686-14.795-3.308l-4.54-11.34-10.68-5.928c-5.646-3.133-6.385-10.959-1.425-15.093l9.382-7.822 2.337-11.99c1.235-6.338 8.449-9.459 13.914-6.02l10.339 6.506 12.125-1.482c6.409-.784 11.607 5.113 10.025 11.373l-2.992 11.843 5.156 11.074c2.726 5.853-1.276 12.618-7.719 13.048z" fill="#0000cb"/><g fill="#fff"><path d="m202.754 404.154-12.756-7.08 11.205-9.342 2.792-14.32 12.347 7.77 14.481-1.77-3.573 14.145 6.158 13.224-14.557.972-10.674 9.944z"/><circle cx="195.427" cy="302.719" r="10.036"/></g></g><g><path d="m176.003 149.33c-1.031 0-2.063-.318-2.939-.955l-3.859-2.804-3.859 2.804c-1.752 1.273-4.125 1.273-5.878 0-1.752-1.273-2.486-3.53-1.816-5.59l1.474-4.537-3.859-2.804c-1.752-1.273-2.486-3.53-1.816-5.59s2.589-3.455 4.755-3.455h4.771l1.474-4.537c.669-2.06 2.589-3.455 4.755-3.455s4.086 1.395 4.755 3.455l1.474 4.537h4.771c2.166 0 4.086 1.395 4.755 3.455s-.064 4.317-1.816 5.59l-3.859 2.804 1.474 4.537c.669 2.06-.064 4.317-1.816 5.59-.878.637-1.909.955-2.941.955z" fill="#6582fd"/></g><g><path d="m100.855 357.218c-1.031 0-2.063-.318-2.939-.955l-3.859-2.804-3.859 2.804c-1.752 1.273-4.125 1.273-5.878 0-1.752-1.273-2.486-3.53-1.816-5.59l1.474-4.538-3.859-2.804c-1.752-1.273-2.486-3.53-1.816-5.59s2.589-3.455 4.755-3.455h4.771l1.474-4.537c.669-2.06 2.589-3.455 4.755-3.455s4.086 1.395 4.755 3.455l1.474 4.537h4.771c2.166 0 4.086 1.395 4.755 3.455s-.064 4.317-1.816 5.59l-3.859 2.804 1.474 4.538c.669 2.06-.064 4.317-1.816 5.59-.879.637-1.91.955-2.941.955z" fill="#6582fd"/></g><g><path d="m443.507 402.586c-8.271 0-15-6.729-15-15s6.729-15 15-15 15 6.729 15 15-6.729 15-15 15zm0-20c-2.757 0-5 2.243-5 5s2.243 5 5 5 5-2.243 5-5-2.243-5-5-5z" fill="#6582fd"/></g><g><path d="m80.509 298.738c-8.271 0-15-6.729-15-15s6.729-15 15-15 15 6.729 15 15-6.729 15-15 15zm0-20c-2.757 0-5 2.243-5 5s2.243 5 5 5 5-2.243 5-5-2.243-5-5-5z" fill="#6582fd"/></g><g><path d="m368.689 195.331c-8.271 0-15-6.729-15-15s6.729-15 15-15 15 6.729 15 15-6.728 15-15 15zm0-20c-2.757 0-5 2.243-5 5s2.243 5 5 5 5-2.243 5-5-2.243-5-5-5z" fill="#6582fd"/></g></g></g></svg>