<?xml version="1.0"?>
<svg xmlns="http://www.w3.org/2000/svg" xmlns:xlink="http://www.w3.org/1999/xlink" xmlns:svgjs="http://svgjs.com/svgjs" version="1.1" width="512" height="512" x="0" y="0" viewBox="0 0 64 64" style="enable-background:new 0 0 512 512" xml:space="preserve" class=""><g><g xmlns="http://www.w3.org/2000/svg"><g><path d="m39 49.171v-5.171c0-3.86-3.141-7-7-7h-5.001c-1.068 0-2.072.416-2.828 1.172s-1.172 1.76-1.171 2.828c.001 1.858 1.281 3.409 3.001 3.857.005-1.115.92-2.011 2.036-1.991l3.262.06c.445.532.701 1.21.701 1.928v7.146h-1.18l.188.301c.157 2.617 2.336 4.699 4.992 4.699 2.757 0 5-2.243 5-5 0-1.304-.836-2.416-2-2.829z" fill="#19ff83" data-original="#f0bc5e"/></g><g><path d="m9.576 35.81c1.106-.574 2.358-.81 3.604-.81h.001 3.821c2.209 0 3.999 1.792 3.998 4.001 0 1.858-1.279 3.413-2.999 3.861v-1.033l-1.002.172h-1.999c-1.657 0-3 1.343-3 3v1.528c0 1.204-.86 2.206-1.999 2.427v1c-.156.022-.311.046-.473.046-1.324 0-2.515-.736-3.105-1.919l-.549-1.097c-.58-1.162-.874-2.413-.874-3.807 0-3.059 1.667-5.862 4.576-7.369z" fill="#19ff83" data-original="#f0bc5e"/></g><g><path d="m56.604 37.395c-1.544-1.544-3.598-2.395-5.783-2.395h-.001-5.82c-1.103 0-2 .897-2 2.001l.001 2c0 1.858 1.279 3.413 2.999 3.861v-1.033l1.002.172h1.999c1.657 0 3 1.343 3 3v1.528c0 1.204.86 2.206 1.999 2.427v1c.156.022.311.046.473.046 1.324 0 2.515-.736 3.105-1.919l.549-1.097c.58-1.161.874-2.412.874-3.806 0-2.186-.851-4.24-2.397-5.785z" fill="#19ff83" data-original="#f0bc5e"/></g><g><path d="m7.837 37.003c.519-.451 1.093-.859 1.739-1.194.617-.32 1.282-.526 1.964-.653 1.45-1.357 3.38-2.155 5.461-2.155v-.001h2v.001c2.942 0 5.614 1.621 7.004 4.138.323-.083.653-.14.995-.14h1.165c-.709-1.622-1.838-2.977-3.213-4h6.048v-31.999h-28v32h8.035c-1.364 1.019-2.485 2.371-3.198 4.003zm17.163-21.446c-.591-.345-1.268-.557-2-.557h-2.586l-6.707-6.707-1.414 1.414 5.427 5.427c-.828.148-1.624.418-2.362.81l-1.651-1.651-1.414 1.414 1.41 1.41c-.103.093-.209.181-.308.28-1.544 1.545-2.395 3.599-2.395 5.869 0 1.309.294 2.561.874 3.72l.007.014h-2.881v-20h16zm-12 7.622c0-1.65.643-3.201 1.81-4.369 1.166-1.167 2.715-1.81 4.364-1.81h.001 3.825c1.103 0 2 .897 2 2s-.897 2-2 2h-2c-2.206 0-4 1.794-4 4v1.528c0 .812-.66 1.472-1.472 1.472-.562 0-1.066-.312-1.317-.814l-.548-1.097c-.44-.877-.663-1.828-.663-2.91zm4 6.482c1.178-.556 2-1.746 2-3.133v-1.528c0-1.103.897-2 2-2h2v3c0 1.654-1.346 3-3 3h-1v2h-2zm-12-26.661h24v28h-7.999v-.1c2.278-.464 3.999-2.485 3.999-4.899v-3.556c1.19-.694 2-1.97 2-3.444v-14.001h-20v24h6.096c.515.509 1.176.848 1.904.959v1.041h-10z" fill="#000000" data-original="#000000" class=""/><path d="m55 51.202v-3.071l-.81-.157c-.689-.133-1.189-.741-1.189-1.445v-1.528c0-2.206-1.794-4-4-4h-1.914l-2.087-.358v5.357c0 2.414 1.721 4.435 4 4.899v.302c-3.094.631-5.664 2.7-7.002 5.472-.528-1.099-1.245-2.11-2.147-2.958l-1.371 1.457c1.625 1.529 2.52 3.599 2.52 5.828h-18c0-4.411 3.589-8 8-8h2v-8.146c0-.938-.332-1.851-.936-2.569l-.292-.349-3.717-.069c-.816.003-1.578.29-2.157.858s-.898 1.329-.898 2.141v3.134c0 1.579.751 2.973 1.898 3.89-2.141.968-3.877 2.668-4.898 4.78-1.338-2.769-3.906-4.837-6.998-5.468v-.302c2.278-.465 3.999-2.485 3.999-4.899v-5.357l-2.087.358h-1.914c-2.206 0-4 1.794-4 4v1.528c0 .704-.5 1.312-1.189 1.445l-.81.157v3.071c-4.559.927-8.001 4.967-8.001 9.797v2h62v-2c0-4.829-3.441-8.869-8-9.798zm-25-.202c-1.654 0-3-1.346-3-3v-3.134c0-.271.106-.524.3-.714.188-.185.436-.286.699-.286h.02l2.748.051c.152.287.233.609.233.937v6.146zm-17-4.471v-1.528c0-1.103.897-2 2-2h1.999l.002 2.999c0 1.654-1.346 3-3 3h-1v2h-.001-1.999v-1.326c1.195-.561 1.999-1.776 1.999-3.145zm-10 14.471c0-4.411 3.589-8 8-8h2c4.411 0 8 3.589 8 8zm47.999-12h-1c-1.653 0-2.999-1.346-2.999-3v-2.999h2.001c1.103 0 2 .897 2 2v1.528c0 1.369.804 2.584 1.999 3.145v1.326h-2zm-7.999 12c0-4.411 3.589-8 8-8h2c4.411 0 8 3.589 8 8z" fill="#000000" data-original="#000000" class=""/><path d="m35 1v19.026c-1.207.914-2 2.348-2 3.974v2c0 2.449 1.267 4.605 3.177 5.857-2.143 1.006-3.85 2.833-4.664 5.143h.487c.548 0 1.079.07 1.591.189 1.098-2.512 3.593-4.189 6.409-4.189 1.852 0 3.609.743 4.903 2.01.033-.001.064-.01.097-.01h2.46c-.516-.768-1.152-1.432-1.859-2h17.399v-32zm0 25v-2c0-1.654 1.346-3 3-3h7v5c0 2.757-2.243 5-5 5s-5-2.243-5-5zm10-7h-4v-12h16v20h-10.08c.047-.328.08-.66.08-1v-5c0-1.103-.897-2-2-2zm16 12h-16.111c.587-.574 1.068-1.251 1.425-2h12.686v-24h-20v14h-1c-.342 0-.677.035-1 .101v-16.101h24z" fill="#000000" data-original="#000000" class=""/><path d="m52 8.172h2v5.657h-2z" transform="matrix(.707 -.707 .707 .707 7.745 40.699)" fill="#000000" data-original="#000000" class=""/><path d="m46 14.172h2v5.657h-2z" transform="matrix(.707 -.707 .707 .707 1.745 38.213)" fill="#000000" data-original="#000000" class=""/><path d="m49 6.929h2v14.142h-2z" transform="matrix(.707 -.707 .707 .707 4.745 39.456)" fill="#000000" data-original="#000000" class=""/><path d="m20 8.172h2v5.657h-2z" transform="matrix(.707 -.707 .707 .707 -1.627 18.071)" fill="#000000" data-original="#000000" class=""/></g></g></g></svg>
