<svg width="100" height="100" viewBox="0 0 100 100" fill="none" xmlns="http://www.w3.org/2000/svg">
<path d="M50 58.75C45.3125 58.75 41.25 55 41.25 50C41.25 45.3125 45 41.25 50 41.25C54.6875 41.25 58.75 45 58.75 50C58.75 54.6875 54.6875 58.75 50 58.75Z" fill="white"/>
<path fill-rule="evenodd" clip-rule="evenodd" d="M60.625 28.75H39.375C36.875 29.0625 35.625 29.375 34.6875 29.6875C33.4375 30 32.5 30.625 31.5625 31.5625C30.8207 32.3043 30.4702 33.0462 30.0465 33.9428C29.9349 34.1791 29.8178 34.4268 29.6875 34.6875C29.6392 34.8325 29.5833 34.985 29.5235 35.1485C29.1966 36.0417 28.75 37.2617 28.75 39.375V60.625C29.0625 63.125 29.375 64.375 29.6875 65.3125C30 66.5625 30.625 67.5 31.5625 68.4375C32.3043 69.1793 33.0462 69.5298 33.9428 69.9535C34.1793 70.0652 34.4266 70.182 34.6875 70.3125C34.8325 70.3608 34.985 70.4167 35.1485 70.4765C36.0417 70.8034 37.2617 71.25 39.375 71.25H60.625C63.125 70.9375 64.375 70.625 65.3125 70.3125C66.5625 70 67.5 69.375 68.4375 68.4375C69.1793 67.6957 69.5298 66.9538 69.9535 66.0572C70.0652 65.8207 70.1821 65.5733 70.3125 65.3125C70.3608 65.1675 70.4167 65.015 70.4765 64.8515C70.8034 63.9583 71.25 62.7382 71.25 60.625V39.375C70.9375 36.875 70.625 35.625 70.3125 34.6875C70 33.4375 69.375 32.5 68.4375 31.5625C67.6957 30.8207 66.9538 30.4702 66.0572 30.0465C65.821 29.9349 65.5729 29.8177 65.3125 29.6875C65.1675 29.6391 65.015 29.5833 64.8515 29.5235C63.9583 29.1966 62.7383 28.75 60.625 28.75ZM50 36.5625C42.5 36.5625 36.5625 42.5 36.5625 50C36.5625 57.5 42.5 63.4375 50 63.4375C57.5 63.4375 63.4375 57.5 63.4375 50C63.4375 42.5 57.5 36.5625 50 36.5625ZM66.875 36.25C66.875 37.9759 65.4759 39.375 63.75 39.375C62.0241 39.375 60.625 37.9759 60.625 36.25C60.625 34.5241 62.0241 33.125 63.75 33.125C65.4759 33.125 66.875 34.5241 66.875 36.25Z" fill="white"/>
<path fill-rule="evenodd" clip-rule="evenodd" d="M0 50C0 22.3858 22.3858 0 50 0C77.6142 0 100 22.3858 100 50C100 77.6142 77.6142 100 50 100C22.3858 100 0 77.6142 0 50ZM39.375 24.0625H60.625C63.4375 24.375 65.3125 24.6875 66.875 25.3125C68.75 26.25 70 26.875 71.5625 28.4375C73.125 30 74.0625 31.5625 74.6875 33.125C75.3125 34.6875 75.9375 36.5625 75.9375 39.375V60.625C75.625 63.4375 75.3125 65.3125 74.6875 66.875C73.75 68.75 73.125 70 71.5625 71.5625C70 73.125 68.4375 74.0625 66.875 74.6875C65.3125 75.3125 63.4375 75.9375 60.625 75.9375H39.375C36.5625 75.625 34.6875 75.3125 33.125 74.6875C31.25 73.75 30 73.125 28.4375 71.5625C26.875 70 25.9375 68.4375 25.3125 66.875C24.6875 65.3125 24.0625 63.4375 24.0625 60.625V39.375C24.375 36.5625 24.6875 34.6875 25.3125 33.125C26.25 31.25 26.875 30 28.4375 28.4375C30 26.875 31.5625 25.9375 33.125 25.3125C34.6875 24.6875 36.5625 24.0625 39.375 24.0625Z" fill="white"/>
</svg>
