<svg width="100" height="100" viewBox="0 0 100 100" fill="none" xmlns="http://www.w3.org/2000/svg">
<path fill-rule="evenodd" clip-rule="evenodd" d="M0 50C0 22.3858 22.3858 0 50 0C77.6142 0 100 22.3858 100 50C100 77.6142 77.6142 100 50 100C22.3858 100 0 77.6142 0 50ZM25.625 41.5625V75H36.25V41.5625H25.625ZM25 30.9375C25 34.375 27.5 36.875 30.9375 36.875C34.375 36.875 36.875 34.375 36.875 30.9375C36.875 27.5 34.375 25 30.9375 25C27.8125 25 25 27.5 25 30.9375ZM64.375 75H74.375V54.375C74.375 44.0625 68.125 40.625 62.1875 40.625C56.875 40.625 53.125 44.0625 52.1875 46.25V41.5625H42.1875V75H52.8125V57.1875C52.8125 52.5 55.9375 50 59.0625 50C62.1875 50 64.375 51.5625 64.375 56.875V75Z" fill="white"/>
</svg>
