<?xml version="1.0" encoding="utf-8"?>
<svg id="master-artboard" viewBox="0 0 862.305419921875 896.2955932617188" version="1.1" xmlns="http://www.w3.org/2000/svg" x="0px" y="0px" style="enable-background:new 0 0 1400 980;" width="862.305419921875px" height="896.2955932617188px"><rect id="ee-background" x="0" y="0" width="862.305419921875" height="896.2955932617188" style="fill: white; fill-opacity: 0; pointer-events: none;"/><defs><style id="ee-google-fonts">@import url(https://fonts.googleapis.com/css?family=Roboto:100,100italic,300,300italic,400,400italic,500,500italic,700,700italic,900,900italic);</style></defs>























































































































<path d="M 260.79998779296875 86.19999694824219" style="fill: rgb(23, 168, 247); fill-opacity: 1; stroke: rgb(0, 0, 0); stroke-opacity: 1; stroke-width: 0; paint-order: fill;" transform="matrix(1, 0, 0, 1, -252.531982421875, -19.8620662689209)"/><linearGradient id="SVGID_1_" gradientUnits="userSpaceOnUse" x1="5.563" x2="506.437" y1="256" y2="256">
    <stop offset="0" stop-color="#d1ddff" stop-opacity="0"/>
    <stop offset="1" stop-color="#b6c4ff"/>
  </linearGradient><g transform="matrix(1.5829110145568848, 0, 0, 1.5829110145568848, 45.789085388183594, 51.39388370513916)">
    <path d="m19.628 431.023c-5.307 119.449 129.864 10.738 200.652 7.143 33.357-1.694 62.546 23.233 90.573 39.77 144.628 85.337 240.463.584 174.158-146.056-39.631-87.647-3.457-174.619-7.048-263.278-2.547-62.897-52.748-84.654-106.561-56.461-97.628 51.147-117.682 31.794-214.55-2.025-62.933-21.972-173.186 24.648-147.469 90.716 79.032 203.038 13.911 247.685 10.245 330.191z" fill="url(#SVGID_1_)"/>
  </g><g transform="matrix(1.5829110145568848, 0, 0, 1.5829110145568848, 45.789085388183594, 51.39388370513916)">
    <g fill="#2626bb" opacity=".1">
      <path d="m480.3 417.751-70.84-166.08c-1.23-2.9-3.77-5.05-6.83-5.79-.02-.01-.05-.01-.07-.02l-64.054-15.076c-.425-24.961-10.147-49.793-29.195-68.841-15.876-15.876-35.77-25.282-56.409-28.222.228-1.713.361-3.383.361-4.986 0-27.611-22.383-49.994-49.994-49.994s-49.994 22.383-49.994 49.994c0 10.447 5.089 23.419 12.02 36.242-19.082 20.73-27.791 47.572-26.121 73.884l-29.736 6.999c-.02.01-.05.01-.07.02-3.06.74-5.6 2.89-6.83 5.79l-70.838 166.08c-1.7 3.98 2.1 8.09 6.2 6.7l110.91-37.5c.05-.02.11-.04.16-.05h.01l1.56-.53 1.57.62c.05.01.09.03.14.05l100.08 39.54c1.18.46 2.43.7 3.67.7s2.49-.24 3.67-.7l100.08-39.54c.05-.02.09-.04.14-.05l.707-.279 35.964 35.964c3.905 3.905 10.237 3.905 14.142 0l14.692-14.692 48.704 16.467c4.101 1.39 7.901-2.72 6.201-6.7z"/>
      <path d="m358.432 190.359h29.291c2.762 0 5-2.238 5-5s-2.238-5-5-5h-29.291c-2.762 0-5 2.238-5 5s2.238 5 5 5z"/>
      <path d="m358.432 210.741h52.583c2.762 0 5-2.238 5-5s-2.238-5-5-5h-52.583c-2.762 0-5 2.238-5 5s2.238 5 5 5z"/>
      <path d="m367.219 165.285c1.891 0 3.778-.398 5.539-1.17l5.4 5.401c.977.977 2.257 1.465 3.536 1.465s2.559-.488 3.535-1.464c1.953-1.953 1.953-5.119.001-7.071l-5.402-5.402c2.21-5.049 1.265-11.159-2.861-15.287 0 0 0 0-.001 0-5.375-5.377-14.121-5.374-19.498 0-5.374 5.376-5.374 14.122.001 19.496 2.688 2.688 6.219 4.032 9.75 4.032zm-2.679-16.458c.738-.738 1.708-1.107 2.678-1.107s1.939.369 2.678 1.107c1.476 1.476 1.476 3.876.003 5.353-.001.001-.002.001-.002.002-.001.001-.001.002-.002.003-1.477 1.473-3.878 1.475-5.354-.002-1.477-1.477-1.477-3.879-.001-5.356z"/>
    </g>
    <g>
      <g>
        <g>
          <g>
            <g fill="#6582fd">
              <path d="m184.2 204.551-33.66 157.82-1.56.53h-.01c-.05.01-.11.03-.16.05l-110.91 37.5c-4.1 1.39-7.9-2.72-6.2-6.7l23.78-55.75 13.662-20.307.877-13.779 32.521-76.244c1.23-2.9 3.77-5.05 6.83-5.79.02-.01.05-.01.07-.02l72.4-17.04c.78-.19 1.57-.27 2.36-.27z"/>
              <path d="m256 223.021v81.12l-5 17.885 5 18.735v62.52c-1.24 0-2.49-.24-3.67-.7l-100.08-39.54c-.05-.02-.09-.04-.14-.05l-1.57-.62 13.383-62.749 7.38-15.536-.649-16.024 13.546-63.511c.83.01 1.66.12 2.46.33h.01l68.06 17.81c.02.01.04.01.06.01z"/>
              <path d="m361.46 362.371-1.57.62c-.05.01-.09.03-.14.05l-100.08 39.54c-1.18.46-2.43.7-3.67.7v-180.26l1.21-.32c.02 0 .04 0 .06-.01l68.06-17.81h.01c.8-.21 1.63-.32 2.46-.33z"/>
              <path d="m474.1 400.451-110.91-37.5c-.05-.02-.11-.04-.16-.05l-1.57-.53-13.152-61.665 1.612-16.575-8.574-16.069-13.546-63.511c.79 0 1.58.08 2.36.27l72.4 17.04c.02.01.05.01.07.02 3.06.74 5.6 2.89 6.83 5.79l32.521 76.244 1.882 16.135 12.657 17.951 23.78 55.751c1.7 3.98-2.1 8.089-6.2 6.699z"/>
            </g>
            <g fill="#fff">
              <path d="m441.979 303.916-100.629-35.855-85.35 36.08-85.35-36.08-100.629 35.855-14.535 34.087 108.434-38.382 92.08 41.14 92.08-41.14 108.434 38.382z"/>
              <path d="m170.65 268.061-6.73 31.56 92.08 41.14v-36.62z"/>
              <path d="m441.979 303.916-100.629-35.855 6.73 31.56 108.434 38.382z"/>
            </g>
          </g>
        </g>
      </g>
      <g>
        <path d="m308.276 262.187h23.275v54.953h-23.275z" fill="#6582fd" transform="matrix(.707 -.707 .707 .707 -111.122 311.054)"/>
        <path d="m179.58 288.868c39.053 28.83 94.364 25.561 129.731-9.806s38.636-90.678 9.805-129.732l-12.592-7.593-8.592-13.593c-39.054-28.836-94.369-25.569-129.738 9.8s-38.636 90.684-9.801 129.738l13.594 8.593z" fill="#fff"/>
        <g>
          <path d="m309.316 137.946c3.599 3.599 6.873 7.41 9.801 11.384l-139.534 139.534c-3.974-2.927-7.785-6.201-11.384-9.8s-6.873-7.411-9.8-11.384l139.533-139.533c3.973 2.926 7.785 6.2 11.384 9.799z" fill="#6582fd"/>
        </g>
        <g>
          <path d="m318.439 214.26c-.857 11.929-4.379 23.702-10.568 34.351l-14.013 11.389-12.697 16.232c-30.852 19.356-72.053 15.611-98.9-11.236-.659-.659-1.304-1.326-1.935-2.002l-1.876-9.981-11.511-9.452c-4.525-9.267-7.149-19.228-7.872-29.3l5.756-19.378.993-19.034c3.868-8.644 9.35-16.742 16.445-23.838 31.2-31.2 81.785-31.2 112.985 0 7.096 7.096 12.578 15.194 16.446 23.839l2.015 22.161z" fill="#6582fd"/>
        </g>
        <path d="m318.44 214.26h-44.91l34.34 34.35c-3.4 5.86-7.61 11.38-12.62 16.39-4.35 4.35-9.08 8.1-14.09 11.23l-13.24-13.24h-87.59c-5.54-5.92-10-12.48-13.39-19.43h81.55l-29.29-29.3h-60.13c-.94-13.04 1.31-26.26 6.75-38.41h145.87c5.44 12.15 7.69 25.37 6.75 38.41z" fill="#fff"/>
        <path d="m428.93 380.45-18.23 18.23c-3.9 3.9-10.23 3.9-14.14 0l-61.85-61.86-.468-7.533 25.291-25.299 7.537.462 61.86 61.86c3.9 3.91 3.9 10.24 0 14.14z" fill="#6582fd"/>
        <path d="m367.071 304.455-16.34-16.34c-3.905-3.905-10.237-3.905-14.142 0l-18.223 18.223c-3.905 3.905-3.905 10.237 0 14.142l16.34 16.34z" fill="#fff"/>
      </g>
    </g>
    <g>
      <g>
        <path d="m253.264 104.737c0 27.863-36.202 73.692-46.993 86.733-1.557 1.882-4.443 1.882-6.001 0-10.791-13.042-46.993-58.87-46.993-86.733 0-27.611 22.383-49.994 49.993-49.994s49.994 22.383 49.994 49.994z" fill="#6582fd"/>
        <g fill="#2626bb">
          <path d="m484.898 391.788-70.835-166.069c-1.827-4.31-5.623-7.547-10.168-8.677-.062-.018-.127-.033-.19-.049l-35.489-8.351c-2.696-.635-5.381 1.034-6.013 3.722-.633 2.688 1.034 5.38 3.722 6.013l35.395 8.328c.045.013.09.023.135.035 1.521.367 2.794 1.444 3.407 2.892l70.84 166.082-41.374-13.992c1.644-2.447 2.528-5.325 2.528-8.34 0-4.007-1.561-7.773-4.394-10.605l-78.195-78.196c-1.45-1.45-3.146-2.561-4.991-3.305l-9.561-44.832c9.673-35.176.721-74.445-26.867-102.033-15.053-15.054-33.86-24.98-54.611-28.874.006-.265.028-.537.028-.8 0-30.323-24.67-54.993-54.993-54.993-30.324 0-54.994 24.67-54.994 54.993 0 15.731 10.154 36.019 21.704 54.017-10.463 14.382-16.12 31.626-16.12 49.747 0 22.68 8.83 44 24.87 60.03 16.55 16.55 38.28 24.83 60.02 24.83s43.48-8.28 60.03-24.83c16.04-16.03 24.87-37.35 24.87-60.03 0-22.67-8.83-43.99-24.87-60.02-12.65-12.65-28.342-20.449-44.738-23.424 1.187-3.265 2.173-6.474 2.882-9.581 18.551 3.592 35.366 12.52 48.852 26.005 36.956 36.957 36.956 97.09 0 134.047-17.903 17.902-41.706 27.762-67.023 27.762-25.318 0-49.121-9.859-67.023-27.762-28.574-28.575-35.901-72.176-18.231-108.495 1.208-2.483.175-5.476-2.309-6.684-2.482-1.209-5.476-.173-6.684 2.309-7.482 15.378-10.895 31.936-10.503 48.29l-25.707 6.046c-.064.015-.129.031-.192.049-4.544 1.13-8.34 4.367-10.162 8.666l-70.841 166.077c-1.573 3.682-.862 7.792 1.855 10.727 2.715 2.932 6.756 3.958 10.544 2.674l110.817-37.469c.029-.008.06-.017.09-.025.024.009.049.017.073.025l100.031 39.521c1.773.691 3.619 1.042 5.486 1.042s3.713-.351 5.507-1.05l97.871-38.667 33.649 33.649c2.924 2.925 6.766 4.387 10.606 4.387s7.683-1.462 10.606-4.387l12.5-12.501 45.756 15.474c1.081.366 2.182.545 3.268.545 2.72 0 5.339-1.121 7.279-3.218 2.719-2.935 3.43-7.045 1.857-10.725zm-326.622-287.052c0-24.81 20.185-44.993 44.994-44.993s44.993 20.184 44.993 44.993c0 20.482-23.08 55.842-44.993 82.513-21.914-26.67-44.994-62.03-44.994-82.513zm108.674 34.384c9.01 3.66 17.46 9.13 24.76 16.43 14.15 14.14 21.94 32.95 21.94 52.95 0 20.01-7.79 38.81-21.94 52.96-29.2 29.2-76.71 29.2-105.91 0-14.15-14.15-21.94-32.95-21.94-52.96 0-14.708 4.224-28.771 12.084-40.806 7.667 11.084 15.297 20.708 20.473 26.963 1.695 2.049 4.193 3.225 6.854 3.225 2.659 0 5.157-1.176 6.853-3.225 9.987-12.069 29.099-36.647 39.993-60.139 5.735.873 11.384 2.403 16.833 4.602zm-120.705 219.419-109.946 37.173 70.845-166.091c.608-1.437 1.881-2.514 3.402-2.881.045-.012.09-.022.135-.035l24.052-5.656c2.655 21.933 12.224 42.956 28.115 59.658zm104.755 38.139-94.687-37.408 15.046-70.529c18.849 15.887 42.454 24.547 67.394 24.547 4.124 0 8.211-.241 12.247-.708zm82.207-142.806 5.774 27.073c-1.022.338-2.006.781-2.935 1.331l-12.376-12.376c3.696-5.106 6.875-10.473 9.537-16.028zm-20.36 28.726c1.576-1.576 3.083-3.194 4.537-4.843l11.248 11.247-9.384 9.384-11.242-11.248c1.651-1.459 3.269-2.968 4.841-4.54zm-51.847 114.081v-85.764c14.123-3.041 27.418-8.957 39.159-17.484l12.364 12.37c-1.35 2.283-2.086 4.886-2.086 7.608 0 4.007 1.56 7.773 4.394 10.606l36.84 36.84zm164.392-19.761-18.223 18.224c-1.951 1.949-5.121 1.949-7.072 0l-78.197-78.197c-1.949-1.95-1.949-5.122 0-7.072l18.224-18.223c1.951-1.949 5.123-1.949 7.072 0l78.195 78.197c.944.943 1.464 2.199 1.464 3.534 0 1.337-.519 2.593-1.463 3.537z"/>
          <path d="m358.432 166.359h29.291c2.762 0 5-2.238 5-5s-2.238-5-5-5h-29.291c-2.762 0-5 2.238-5 5s2.238 5 5 5z"/>
          <path d="m358.432 186.741h52.583c2.762 0 5-2.238 5-5s-2.238-5-5-5h-52.583c-2.762 0-5 2.238-5 5s2.238 5 5 5z"/>
          <path d="m367.219 141.285c1.891 0 3.778-.398 5.539-1.17l5.4 5.401c.977.977 2.257 1.465 3.536 1.465s2.559-.488 3.535-1.464c1.953-1.953 1.953-5.119.001-7.071l-5.402-5.402c2.21-5.049 1.265-11.159-2.861-15.287 0 0 0 0-.001 0-5.375-5.377-14.121-5.374-19.498 0-5.374 5.376-5.374 14.122.001 19.496 2.688 2.688 6.219 4.032 9.75 4.032zm-2.679-16.458c.738-.738 1.708-1.107 2.678-1.107s1.939.369 2.678 1.107c1.476 1.476 1.476 3.876.003 5.353-.001.001-.002.001-.002.002-.001.001-.001.002-.002.003-1.477 1.473-3.878 1.475-5.354-.002-1.477-1.477-1.477-3.879-.001-5.356z"/>
        </g>
        <path d="M 231.789003 104.737 A 28.518999 28.518999 0 0 1 203.270004 133.255999 A 28.518999 28.518999 0 0 1 174.751005 104.737 A 28.518999 28.518999 0 0 1 203.270004 76.218 A 28.518999 28.518999 0 0 1 231.789003 104.737 Z" fill="#fff"/>
      </g>
    </g>
  </g><g transform="matrix(0.26637229323387146, 0, 0, 0.26637229323387146, 78.5428695678711, 111.06330585479736)">
    <g/>
    <g>
      <g>
        <path d="M 338.439 290.571 L 455.565 265.809 C 460.413 265.14 464.024 260.997 464.024 256.103 L 464.024 160.831 C 464.024 155.42 459.637 151.033 454.226 151.033 L 275.066 151.033 L 275.066 138.596 C 275.066 133.073 270.589 128.596 265.066 128.596 L 242.852 128.596 L 242.852 105.796 C 242.852 103.035 240.613 100.796 237.852 100.796 L 192.653 100.796 L 192.653 81.241 C 192.653 75.718 188.176 71.241 182.653 71.241 L 108.174 71.241 C 102.651 71.241 98.174 75.718 98.174 81.241 L 98.174 100.796 L 52.975 100.796 C 50.214 100.796 47.975 103.035 47.975 105.796 L 47.975 483.758 C 47.975 486.519 50.214 488.758 52.975 488.758 L 237.852 488.758 C 240.613 488.758 242.852 486.519 242.852 483.758 L 242.852 460.958 L 265.066 460.958 C 270.589 460.958 275.066 456.481 275.066 450.958 L 275.066 438.521 L 298.268 438.521 C 303.679 438.521 308.066 434.134 308.066 428.723 L 308.066 397.821 C 308.066 397.821 314.697 293.846 338.439 290.571 Z" fill="#2626bc" opacity=".1"/>
        <g>
          <g>
            <g>
              <path d="m192.653 81.629v-18.388c0-5.523-4.477-10-10-10h-74.479c-5.523 0-10 4.477-10 10v18.387h94.479z" fill="#fff"/>
            </g>
            <g>
              <g>
                <path d="m265.066 436.959h-165.281v-332.363h165.281c5.523 0 10 4.477 10 10v312.363c0 5.523-4.477 10-10 10z" fill="#fff"/>
              </g>
              <g>
                <g>
                  <g>
                    <path d="m237.852 464.759h-184.877c-2.761 0-5-2.239-5-5v-22.8l3-166.181-3-166.181v-22.8c0-2.761 2.239-5 5-5h184.877c2.761 0 5 2.239 5 5v377.962c0 2.761-2.239 5-5 5z" fill="#fff"/>
                  </g>
                  <g>
                    <path d="m217.852 464.759h-144.877c-2.761 0-5-2.239-5-5v-377.962c0-2.761 2.239-5 5-5h144.877c2.761 0 5 2.239 5 5v377.962c0 2.761-2.239 5-5 5z" fill="#6582fd"/>
                  </g>
                </g>
                <g>
                  <path d="m464.025 136.832c0-5.411-4.387-9.798-9.798-9.798h-231.347v287.488h75.388c5.411 0 9.798-4.387 9.798-9.798v-84.207c0-33.45 24.683-61.771 57.82-66.34l89.68-12.367c4.848-.669 8.459-4.812 8.459-9.706z" fill="#6582fd"/>
                  <g>
                    <path d="m242.852 436.959h-194.877v-229.022l98.379-3 96.498 3z" fill="#6582fd"/>
                  </g>
                  <path d="m242.852 297.194h-104.474c-2.761 0-5-2.239-5-5v-18.075c0-2.761 2.239-5 5-5h104.474z" fill="#fff"/>
                  <path d="m107.488 436.959h-33.74v-229.022l16.87-3 16.87 3z" fill="#fff"/>
                  <g>
                    <path d="m47.975 104.596h194.876v103.341h-194.876z" fill="#fff"/>
                  </g>
                </g>
              </g>
            </g>
            <g fill="#fff">
              <path d="m281.663 183.523h-13.195c-2.761 0-5-2.239-5-5v-23.714c0-2.761 2.239-5 5-5h13.195c2.761 0 5 2.239 5 5v23.714c0 2.761-2.239 5-5 5z"/>
              <path d="m329.153 183.523h-13.195c-2.761 0-5-2.239-5-5v-23.714c0-2.761 2.239-5 5-5h13.195c2.761 0 5 2.239 5 5v23.714c0 2.761-2.239 5-5 5z"/>
              <path d="m376.643 183.523h-13.195c-2.761 0-5-2.239-5-5v-23.714c0-2.761 2.239-5 5-5h13.195c2.761 0 5 2.239 5 5v23.714c0 2.761-2.239 5-5 5z"/>
              <path d="m424.133 183.523h-13.195c-2.761 0-5-2.239-5-5v-23.714c0-2.761 2.239-5 5-5h13.195c2.761 0 5 2.239 5 5v23.714c0 2.761-2.239 5-5 5z"/>
              <path d="m281.663 391.746h-13.195c-2.761 0-5-2.239-5-5v-23.714c0-2.761 2.239-5 5-5h13.195c2.761 0 5 2.239 5 5v23.714c0 2.762-2.239 5-5 5z"/>
            </g>
          </g>
          <g>
            <g>
              <g>
                <path d="m127.024 167.605h-5.332c-6.508 0-11.802-5.295-11.802-11.803v-16.457c0-6.508 5.294-11.802 11.802-11.802h5.332c6.508 0 11.803 5.294 11.803 11.802v16.457c0 6.508-5.295 11.803-11.803 11.803zm-5.332-30.062c-.993 0-1.802.809-1.802 1.802v16.457c0 .994.809 1.803 1.802 1.803h5.332c.994 0 1.803-.809 1.803-1.803v-16.457c0-.994-.809-1.802-1.803-1.802z" fill="#6582fd"/>
              </g>
            </g>
            <g>
              <path d="m99.672 167.165h-18.109c-2.122 0-4.012-1.339-4.716-3.341s-.068-4.23 1.586-5.559c5.042-4.05 12.846-11.452 14.406-15.228.6-1.451.505-3.051-.247-4.176-.585-.875-1.455-1.318-2.587-1.318-1.898 0-3.442 1.544-3.442 3.442 0 2.761-2.238 5-5 5s-5-2.239-5-5c0-7.412 6.03-13.442 13.442-13.442 4.479 0 8.452 2.099 10.899 5.76 2.624 3.923 3.063 8.99 1.177 13.555-1.354 3.274-4.398 6.997-7.594 10.307h5.184c2.762 0 5 2.239 5 5s-2.237 5-4.999 5z" fill="#6582fd"/>
            </g>
          </g>
          <g/>
          <g>
            <g/>
          </g>
          <g>
            <g>
              <path d="m152.542 386.157h-12.376c-2.762 0-5-2.239-5-5s2.238-5 5-5h12.376c2.762 0 5 2.239 5 5s-2.238 5-5 5z" fill="#fff"/>
            </g>
            <g>
              <path d="m207.71 407.9h-67.544c-2.762 0-5-2.239-5-5s2.238-5 5-5h67.544c2.762 0 5 2.239 5 5s-2.238 5-5 5z" fill="#fff"/>
            </g>
            <g>
              <g>
                <path d="m180.929 386.157h-9.128c-2.762 0-5-2.239-5-5s2.238-5 5-5h9.128c2.762 0 5 2.239 5 5s-2.239 5-5 5z" fill="#fff"/>
              </g>
            </g>
            <g>
              <g>
                <path d="m207.558 364.413h-67.392c-2.762 0-5-2.239-5-5s2.238-5 5-5h67.392c2.762 0 5 2.239 5 5s-2.239 5-5 5z" fill="#fff"/>
              </g>
              <g>
                <path d="m179.861 342.669h-39.695c-2.762 0-5-2.239-5-5s2.238-5 5-5h39.695c2.762 0 5 2.239 5 5s-2.238 5-5 5z" fill="#fff"/>
              </g>
            </g>
            <g>
              <path d="m152.542 260.266h-12.376c-2.762 0-5-2.239-5-5s2.238-5 5-5h12.376c2.762 0 5 2.239 5 5s-2.238 5-5 5z" fill="#fff"/>
            </g>
          </g>
          <g>
            <g>
              <path d="m221.137 192.261c-2.762 0-5-2.239-5-5v-.115c0-2.761 2.238-5 5-5s5 2.239 5 5v.115c0 2.761-2.239 5-5 5z" fill="#6582fd"/>
            </g>
            <g>
              <path d="m206.224 192.261c-2.762 0-5-2.239-5-5v-.115c0-2.761 2.238-5 5-5s5 2.239 5 5v.115c0 2.761-2.239 5-5 5z" fill="#6582fd"/>
            </g>
            <g>
              <path d="m191.312 192.261c-2.762 0-5-2.239-5-5v-.115c0-2.761 2.238-5 5-5s5 2.239 5 5v.115c0 2.761-2.239 5-5 5z" fill="#6582fd"/>
            </g>
          </g>
          <g>
            <path d="m133.827 192.146h-52.523c-2.762 0-5-2.239-5-5s2.238-5 5-5h52.523c2.762 0 5 2.239 5 5s-2.238 5-5 5z" fill="#6582fd"/>
          </g>
        </g>
        <path d="M 366.574 259.133 L 456.256 246.762 C 463.532 245.755 469.02 239.451 469.02 232.099 L 469.02 136.819 C 469.02 128.664 462.385 122.029 454.231 122.029 L 280.065 122.029 L 280.065 114.595 C 280.065 106.324 273.336 99.595 265.065 99.595 L 247.851 99.595 L 247.851 81.797 C 247.851 76.283 243.365 71.797 237.851 71.797 L 197.652 71.797 L 197.652 63.241 C 197.652 54.97 190.923 48.241 182.652 48.241 L 108.173 48.241 C 99.902 48.241 93.173 54.97 93.173 63.241 L 93.173 71.797 L 52.975 71.797 C 47.461 71.797 42.975 76.283 42.975 81.797 L 42.975 146.404 C 42.975 149.165 45.213 151.404 47.975 151.404 C 50.737 151.404 52.975 149.165 52.975 146.404 L 52.975 109.596 L 237.852 109.596 L 237.852 431.959 L 52.975 431.959 L 52.975 174.788 C 52.975 172.027 50.737 169.788 47.975 169.788 C 45.213 169.788 42.975 172.027 42.975 174.788 L 42.975 459.759 C 42.975 465.273 47.461 469.759 52.975 469.759 L 237.852 469.759 C 243.366 469.759 247.852 465.273 247.852 459.759 L 247.852 441.959 L 265.066 441.959 C 273.337 441.959 280.066 435.23 280.066 426.959 L 280.066 419.52 L 298.27 419.52 C 306.431 419.52 313.071 412.881 313.071 404.72 L 313.071 378.823 L 313.798 370.594 L 321.833 288.733 C 331.41 272.612 347.648 261.74 366.574 259.133 Z M 270.065 114.596 L 270.065 122.03 L 247.851 122.03 L 247.851 109.596 L 265.065 109.596 C 267.822 109.596 270.065 111.839 270.065 114.596 Z M 103.174 63.241 C 103.174 60.484 105.417 58.241 108.174 58.241 L 182.653 58.241 C 185.41 58.241 187.653 60.484 187.653 63.241 L 187.653 71.797 L 103.174 71.797 L 103.174 63.241 Z M 52.975 81.797 L 237.852 81.797 L 237.852 99.596 L 52.975 99.596 L 52.975 81.797 Z M 52.975 459.759 L 52.975 441.959 L 237.852 441.959 L 237.852 459.759 L 52.975 459.759 Z M 270.065 426.959 C 270.065 429.716 267.822 431.959 265.065 431.959 L 247.851 431.959 L 247.851 419.52 L 270.065 419.52 L 270.065 426.959 Z M 310.482 288.732 L 303.07 378.822 L 303.07 404.719 C 303.07 407.366 300.917 409.519 298.269 409.519 L 247.851 409.519 L 247.851 132.03 L 454.23 132.03 C 456.871 132.03 459.019 134.179 459.019 136.82 L 459.019 232.1 C 459.019 234.486 457.242 236.531 454.886 236.857 L 365.207 249.227 C 341.649 252.472 320.97 267.492 310.482 288.732 Z" fill="#2626bc"/>
      </g>
      <g>
        <path d="m328.787 463.455c-7.175 0-13.012-5.837-13.012-13.012s5.837-13.012 13.012-13.012 13.012 5.837 13.012 13.012-5.837 13.012-13.012 13.012zm0-16.024c-1.661 0-3.012 1.351-3.012 3.012s1.351 3.012 3.012 3.012 3.012-1.351 3.012-3.012-1.351-3.012-3.012-3.012z" fill="#6582fd"/>
      </g>
      <g>
        <path d="m71.775 45.799c-7.175 0-13.012-5.837-13.012-13.012s5.837-13.012 13.012-13.012 13.012 5.837 13.012 13.012-5.837 13.012-13.012 13.012zm0-16.024c-1.661 0-3.012 1.351-3.012 3.012s1.351 3.012 3.012 3.012 3.012-1.351 3.012-3.012-1.35-3.012-3.012-3.012z" fill="#6582fd"/>
      </g>
      <g>
        <path d="m436.91 314.756c-7.175 0-13.012-5.837-13.012-13.012s5.837-13.012 13.012-13.012 13.012 5.837 13.012 13.012-5.837 13.012-13.012 13.012zm0-16.024c-1.661 0-3.012 1.351-3.012 3.012s1.351 3.012 3.012 3.012 3.012-1.351 3.012-3.012-1.351-3.012-3.012-3.012z" fill="#6582fd"/>
      </g>
      <g>
        <path d="m286.561 492.759c-2.762 0-5-2.239-5-5 0-3.033-2.468-5.5-5.501-5.5-2.762 0-5-2.239-5-5s2.238-5 5-5c3.033 0 5.501-2.467 5.501-5.5 0-2.761 2.238-5 5-5s5 2.239 5 5c0 3.033 2.467 5.5 5.499 5.5 2.762 0 5 2.239 5 5s-2.238 5-5 5c-3.032 0-5.499 2.467-5.499 5.5 0 2.761-2.239 5-5 5z" fill="#6582fd"/>
      </g>
      <g>
        <path d="m293.467 64.311c-2.762 0-5-2.239-5-5 0-3.033-2.468-5.5-5.5-5.5-2.762 0-5-2.239-5-5s2.238-5 5-5c3.032 0 5.5-2.467 5.5-5.5 0-2.761 2.238-5 5-5s5 2.239 5 5c0 3.033 2.468 5.5 5.5 5.5 2.762 0 5 2.239 5 5s-2.238 5-5 5c-3.032 0-5.5 2.467-5.5 5.5 0 2.761-2.238 5-5 5z" fill="#6582fd"/>
      </g>
    </g>
  </g><g transform="matrix(1.5829110145568848, 0, 0, 1.5829110145568848, 342.89910888671875, -524.7626447677612)">
    <g transform="matrix(0.226676, 0, 0, 0.226676, 164.236893, 333.868805)" style="">
      <g>
        <g>
          <g fill="#2626bc">
            <path d="m333.831 294.599h-15.301c-4.417 0-7.997 3.58-7.997 7.997v2.261c0 4.417-3.58 7.997-7.997 7.997h-18.078c-2.762 0-5 2.239-5 5v51.854c-1.268-.378-2.609-.588-4-.588-7.732 0-14 6.268-14 14s6.268 14 14 14 14-6.268 14-14v-42.895h13.078c4.417 0 7.997-3.58 7.997-7.997v-2.261c0-4.416 3.58-7.997 7.997-7.997h10.301v34.865c-1.268-.378-2.609-.587-4-.587-7.732 0-14 6.268-14 14s6.268 14 14 14 14-6.268 14-14v-70.65c0-2.76-2.238-4.999-5-4.999z" opacity=".1"/>
            <path d="m141.427 210.165c7.732 0 14-6.268 14-14v-42.895h13.078c4.417 0 7.997-3.58 7.997-7.997v-2.261c0-4.416 3.58-7.997 7.997-7.997h10.301v34.865c-1.268-.378-2.609-.587-4-.587-7.732 0-14 6.268-14 14s6.268 14 14 14 14-6.268 14-14v-70.65c0-2.761-2.238-5-5-5h-15.301c-4.417 0-7.997 3.58-7.997 7.997v2.261c0 4.417-3.58 7.997-7.997 7.997h-18.078c-2.762 0-5 2.239-5 5v51.854c-1.268-.378-2.609-.588-4-.588-7.732 0-14 6.268-14 14 0 7.733 6.268 14.001 14 14.001z" opacity=".1"/>
            <path d="m465.097 97.516-.438-2.046c-.525-2.451-2.778-4.188-5.275-3.963-6.822.614-12.924-.735-16.824-1.966-3.292-1.039-6.791-1.196-10.166-.474l-26.499 5.672-.072-.338c-.578-2.7-3.236-4.421-5.936-3.843l-22.353 4.785c-2.176.466-3.692 2.288-3.905 4.389l-25.06 5.226c-.779-3.282-1.525-6.571-2.25-9.864.205-.012.409-.018.616-.056l16.299-2.977c2.717-.496 4.517-3.101 4.021-5.817-.497-2.716-3.095-4.519-5.817-4.02l-16.299 2.977-7.717 1.661-21.297 4.444-1.009-4.064c-.741-2.985-3.762-4.805-6.747-4.064l-8.427 2.091c-2.985.741-4.805 3.762-4.064 6.747l.829 3.341-.884.185c-19.573 4.078-35.879 16.39-45.135 33.66l-2.642-.962c-2.595-.944-5.464.393-6.409 2.988l-3.203 8.8c-.944 2.595.394 5.464 2.988 6.409l20.776 7.562-93.314 256.378c-2.545 6.991-10.273 10.595-17.265 8.051-3.496-1.272-6.146-3.844-7.595-6.968-1.462-3.118-1.728-6.801-.456-10.297l18.257-50.161c7.918-21.754 9.957-45.222 5.911-68.021l-1.987-15.973.011-.005c6.553-1.866 11.388-7.423 12.33-14.171l1.234-8.835c.3-2.148-1.708-3.894-3.793-3.3l-126.56 36.044c-2.085.594-2.871 3.136-1.485 4.803l5.704 6.859c4.355 5.237 11.389 7.413 17.94 5.55 5.821 13.493 9.302 27.785 10.391 42.269-6.097.406-11.215 5.12-11.906 11.406l-6.829 62.18c-.626 5.7 2.58 10.935 7.556 13.143.89 7.151 2.884 14.091 5.903 20.558 7.417 15.906 20.9 28.976 38.688 35.45l3.759 1.368c9.97 3.629 20.236 4.798 30.134 3.821 7.156 5.197 16.832 6.475 25.415 2.472 8.347-3.892 13.537-11.786 14.386-20.331 7.803-7.186 14.061-16.281 17.94-26.939l9.891-27.174 4.033 1.468c2.595.944 5.464-.393 6.409-2.988l69.786-191.735c.945-2.595-.393-5.464-2.988-6.409l-4.033-1.468 15.154-41.635c4.832 1.082 9.831-1.555 11.57-6.332l1.493-4.102c.945-2.595-.393-5.464-2.988-6.409l-3.329-1.212c4.674-9.931 13.713-17.206 24.561-19.541l42.421-9.134c1.055 1.827 3.183 2.867 5.357 2.401l22.353-4.785c2.688-.575 4.401-3.212 3.847-5.899l51.154-10.95c2.697-.572 4.417-3.23 3.839-5.93z" opacity=".1"/>
          </g>
          <g>
            <g>
              <path d="m165.761 243.005-94.626 26.949c-6.553 1.866-13.59-.309-17.946-5.548l-5.703-6.859c-1.386-1.667-.6-4.209 1.485-4.803l126.56-36.044c2.085-.594 4.093 1.153 3.793 3.3l-1.234 8.835c-.941 6.748-5.776 12.304-12.329 14.17z" fill="#fff"/>
              <path d="m345.689 68.242c-.806-3.763-4.5-6.166-8.267-5.38l-41.598 8.681c-22.777 4.746-41.138 20.634-49.104 42.52l18.794 6.84c5.537-15.214 18.547-26.484 34.391-29.784l48.665-10.161c-1.005-4.23-1.97-8.468-2.881-12.716z" fill="#6582fd"/>
              <path d="m323.144 95.587-19.238 4.775-8.028-32.344c-.741-2.985 1.078-6.006 4.064-6.747l8.427-2.092c2.985-.741 6.006 1.078 6.747 4.064z" fill="#fff"/>
              <path d="m390.462 96.118-54.339 11.701c-11.905 2.563-21.649 11.063-25.815 22.508l-103.742 285.027c-12.952 35.586-52.298 53.925-87.874 40.976l-3.759-1.368c-17.788-6.474-31.271-19.544-38.689-35.45-7.421-15.897-8.766-34.626-2.288-52.424 11.564-31.771 10.384-66.51-2.828-97.135l48.872-18.201 45.749-8.742 1.987 15.973c4.046 22.799 2.007 46.267-5.911 68.021l-18.257 50.161c-1.272 3.496-1.006 7.179.456 10.297 1.449 3.124 4.099 5.696 7.595 6.968 6.991 2.545 14.72-1.059 17.265-8.051l96.624-265.473c5.537-15.214 18.547-26.484 34.391-29.784l85.661-17.88z" fill="#6582fd"/>
            </g>
            <g fill="#fff">
              <g>
                <path d="m220.49 389.648-16.079-5.852c-2.595-.944-3.933-3.814-2.988-6.409l69.786-191.735c.944-2.595 3.814-3.933 6.409-2.988l16.079 5.852c2.595.944 3.933 3.814 2.988 6.409l-69.786 191.735c-.945 2.594-3.814 3.932-6.409 2.988z"/>
                <path d="m293.696 188.516-9.832-3.579-73.206 201.132 9.832 3.579c2.595.944 5.464-.393 6.409-2.988l69.786-191.735c.944-2.595-.394-5.464-2.989-6.409z"/>
              </g>
              <path d="M 255.017006 190.074997 A 12.805 10.389 0 0 1 242.212006 200.463997 A 12.805 10.389 0 0 1 229.407005 190.074997 A 12.805 10.389 0 0 1 242.212006 179.685997 A 12.805 10.389 0 0 1 255.017006 190.074997 Z" transform="matrix(.342 -.94 .94 .342 -19.242 352.671)"/>
              <path d="M 239.978004 231.397003 A 12.805 10.389 0 0 1 227.173004 241.786003 A 12.805 10.389 0 0 1 214.368004 231.397003 A 12.805 10.389 0 0 1 227.173004 221.008003 A 12.805 10.389 0 0 1 239.978004 231.397003 Z" transform="matrix(.342 -.94 .94 .342 -67.967 365.727)"/>
              <path d="M 224.937996 272.717987 A 12.805 10.389 0 0 1 212.132996 283.106987 A 12.805 10.389 0 0 1 199.327995 272.717987 A 12.805 10.389 0 0 1 212.132996 262.328987 A 12.805 10.389 0 0 1 224.937996 272.717987 Z" transform="matrix(.342 -.94 .94 .342 -116.692 378.783)"/>
              <path d="M 209.898003 314.039001 A 12.805 10.389 0 0 1 197.093002 324.428001 A 12.805 10.389 0 0 1 184.288002 314.039001 A 12.805 10.389 0 0 1 197.093002 303.650002 A 12.805 10.389 0 0 1 209.898003 314.039001 Z" transform="matrix(.342 -.94 .94 .342 -165.417 391.838)"/>
              <path d="M 194.859001 355.359985 A 12.805 10.389 0 0 1 182.054001 365.748985 A 12.805 10.389 0 0 1 169.249001 355.359985 A 12.805 10.389 0 0 1 182.054001 344.970985 A 12.805 10.389 0 0 1 194.859001 355.359985 Z" transform="matrix(.342 -.94 .94 .342 -214.142 404.894)"/>
            </g>
            <g>
              <g fill="#fff">
                <path d="M 110.543002 335.213013 A 15.463 15.463 0 0 1 95.080002 350.676013 A 15.463 15.463 0 0 1 79.617002 335.213013 A 15.463 15.463 0 0 1 95.080002 319.750012 A 15.463 15.463 0 0 1 110.543002 335.213013 Z"/>
                <path d="M 105.620997 380.031006 A 15.463 15.463 0 0 1 90.157997 395.494006 A 15.463 15.463 0 0 1 74.694997 380.031006 A 15.463 15.463 0 0 1 90.157997 364.568006 A 15.463 15.463 0 0 1 105.620997 380.031006 Z"/>
              </g>
              <path d="m79.537 400.575-5.382-.591c-7.053-.775-12.143-7.12-11.368-14.173l6.829-62.18c.775-7.053 7.12-12.143 14.173-11.368l5.382.591c1.647.181 2.835 1.663 2.655 3.31l-8.979 81.758c-.182 1.646-1.663 2.834-3.31 2.653z" fill="#fff"/>
              <path d="m66.138 333.338h21.262v45.087h-21.262z" fill="#6582fd" transform="matrix(.994 .109 -.109 .994 39.308 -6.254)"/>
            </g>
            <g>
              <g>
                <g>
                  <g>
                    <path d="M 181.170006 439.834015 A 17.556999 17.556999 0 0 1 163.613007 457.391014 A 17.556999 17.556999 0 0 1 146.056007 439.834015 A 17.556999 17.556999 0 0 1 163.613007 422.277016 A 17.556999 17.556999 0 0 1 181.170006 439.834015 Z" fill="#fff"/>
                    <path d="M 168.917006 439.834015 A 5.304 5.304 0 0 1 163.613007 445.138015 A 5.304 5.304 0 0 1 158.309007 439.834015 A 5.304 5.304 0 0 1 163.613007 434.530015 A 5.304 5.304 0 0 1 168.917006 439.834015 Z" fill="#6582fd"/>
                  </g>
                </g>
              </g>
              <g>
                <g>
                  <g>
                    <path d="m145.79 449.66c-2.558.413-3.72 3.405-2.146 5.464 7.014 9.179 19.696 12.583 30.597 7.5s16.445-16.986 13.922-28.26c-.566-2.529-3.605-3.563-5.565-1.868l-7.22 6.24c-5.72 4.944-12.703 8.2-20.167 9.404z" fill="#fff"/>
                  </g>
                </g>
              </g>
            </g>
            <g>
              <g>
                <path d="m404.721 70.99 27.673-5.924c3.375-.722 6.874-.565 10.166.474 3.9 1.231 10.002 2.58 16.824 1.966 2.497-.225 4.75 1.512 5.275 3.963l.438 2.046c.578 2.7-1.142 5.358-3.843 5.936l-52.325 11.2z" fill="#6582fd"/>
                <path d="m406.254 96.301-22.353 4.785c-2.7.578-5.358-1.142-5.936-3.843l-4.273-19.964c-.578-2.7 1.142-5.358 3.843-5.936l22.353-4.785c2.7-.578 5.358 1.142 5.936 3.843l4.273 19.964c.578 2.7-1.143 5.358-3.843 5.936z" fill="#fff"/>
              </g>
            </g>
            <path d="m317.88 134.98-1.493 4.102c-1.889 5.19-7.627 7.866-12.817 5.977l-62.147-22.62c-2.595-.944-3.933-3.814-2.988-6.409l3.203-8.8c.944-2.595 3.814-3.933 6.409-2.988l66.846 24.33c2.593.944 3.931 3.813 2.987 6.408z" fill="#fff"/>
          </g>
        </g>
        <g fill="#fff">
          <path d="M 284.458008 359.119995 A 14 14 0 0 1 270.458008 373.119995 A 14 14 0 0 1 256.458008 359.119995 A 14 14 0 0 1 270.458008 345.119995 A 14 14 0 0 1 284.458008 359.119995 Z"/>
          <path d="M 333.830994 346.248993 A 14 14 0 0 1 319.830994 360.248993 A 14 14 0 0 1 305.830994 346.248993 A 14 14 0 0 1 319.830994 332.248993 A 14 14 0 0 1 333.830994 346.248993 Z"/>
          <g>
            <path d="m302.536 316.225h-18.078v-18.372c0-1.657 1.343-3 3-3h15.078c4.417 0 7.997-3.58 7.997-7.997v21.372c0 4.417-3.58 7.997-7.997 7.997z"/>
            <path d="m333.831 294.619c0 1.851-1.501 3.352-3.352 3.352h-11.949c-4.417 0-7.997 3.58-7.997 7.997v-21.372c0-4.417 3.58-7.997 7.997-7.997h11.949c1.851 0 3.352 1.501 3.352 3.352z"/>
          </g>
        </g>
        <g>
          <path d="M 150.427002 172.164993 A 14 14 0 0 1 136.427002 186.164993 A 14 14 0 0 1 122.427002 172.164993 A 14 14 0 0 1 136.427002 158.164993 A 14 14 0 0 1 150.427002 172.164993 Z" fill="#fff"/>
          <path d="M 199.800003 159.294006 A 14 14 0 0 1 185.800003 173.294006 A 14 14 0 0 1 171.800003 159.294006 A 14 14 0 0 1 185.800003 145.294006 A 14 14 0 0 1 199.800003 159.294006 Z" fill="#fff"/>
          <g>
            <g fill="#fff">
              <path d="m168.505 129.27h-18.078v-18.372c0-1.657 1.343-3 3-3h15.078c4.417 0 7.997-3.58 7.997-7.997v21.372c0 4.417-3.58 7.997-7.997 7.997z"/>
              <path d="m199.8 107.664c0 1.851-1.501 3.352-3.352 3.352h-11.949c-4.417 0-7.997 3.58-7.997 7.997v-21.372c0-4.417 3.58-7.997 7.997-7.997h11.949c1.851 0 3.352 1.501 3.352 3.352z"/>
            </g>
            <g fill="#2626bc">
              <path d="m469.986 72.47-.438-2.047c-1.06-4.95-5.616-8.339-10.613-7.896-5.988.541-11.391-.656-14.871-1.754-4.097-1.293-8.495-1.5-12.717-.595l-22.741 4.867c-2.305-2.753-6.019-4.179-9.766-3.376l-22.353 4.785c-2.945.631-5.302 2.51-6.654 4.961l-17.504 3.654c-.378-1.644-.735-3.241-1.084-4.818l11.988-2.19c2.716-.496 4.517-3.101 4.02-5.817-.496-2.717-3.1-4.516-5.817-4.02l-14.505 2.649c-2.754-2.509-6.624-3.721-10.532-2.906l-16.613 3.467c-.77-2.473-2.386-4.557-4.623-5.904-2.419-1.457-5.26-1.884-7.999-1.205l-8.427 2.092c-5.12 1.271-8.427 6.099-7.969 11.198-17.678 4.754-32.82 16.026-42.368 31.549-2.112-.451-4.301-.217-6.292.711-2.421 1.129-4.257 3.133-5.17 5.643l-3.204 8.8c-1.886 5.182.795 10.931 5.977 12.817l16.081 5.853-14.474 39.765c-5.786.983-11.172 5.471-13.569 12.057s-1.155 13.485 2.645 17.957l-4.113 11.301c-1.882.311-3.745.972-5.488 2.017-3.652 2.19-6.522 5.758-8.083 10.046-1.561 4.289-1.655 8.867-.266 12.892.663 1.92 1.666 3.625 2.908 5.072l-4.111 11.294c-1.882.311-3.746.972-5.488 2.017-3.652 2.189-6.523 5.757-8.084 10.046-2.397 6.586-1.154 13.485 2.645 17.957l-4.116 11.308c-5.786.984-11.172 5.47-13.569 12.056s-1.155 13.485 2.645 17.958l-4.115 11.307c-5.786.983-11.172 5.471-13.569 12.057s-1.155 13.485 2.645 17.958l-6.046 16.611c-1.598 4.39-6.467 6.663-10.857 5.062-2.126-.773-3.82-2.327-4.777-4.391-.958-2.042-1.059-4.338-.285-6.465l18.257-50.161c8.194-22.512 10.323-46.879 6.159-70.475l-1.497-12.038c6.344-3.261 10.841-9.434 11.852-16.672l1.234-8.835c.375-2.689-.624-5.359-2.672-7.142-2.049-1.782-4.831-2.403-7.443-1.659l-77.673 22.122c-2.656.756-4.195 3.522-3.439 6.178s3.521 4.195 6.178 3.439l74.72-21.28-.81 5.794c-.668 4.784-4.102 8.73-8.747 10.054l-94.625 26.949c-4.645 1.321-9.643-.222-12.731-3.937l-3.74-4.498 18.637-5.308c2.656-.756 4.195-3.522 3.439-6.178s-3.521-4.196-6.178-3.439l-21.591 6.149c-2.612.744-4.649 2.737-5.451 5.332s-.244 5.39 1.492 7.477l5.704 6.859c4.284 5.152 10.585 8.01 17.084 8.009.531 0 1.063-.022 1.596-.06 4.159 10.528 6.876 21.518 8.105 32.772-1.751.657-3.41 1.582-4.912 2.786-3.719 2.983-6.054 7.235-6.574 11.974l-6.829 62.181c-.52 4.739.836 9.397 3.819 13.116 1.181 1.472 2.567 2.717 4.097 3.729 1.079 6.744 3.085 13.297 5.987 19.513 8.304 17.807 23.045 31.315 41.511 38.036l3.758 1.367c8.152 2.967 16.561 4.46 25.082 4.46 1.792 0 3.591-.088 5.392-.221 4.861 3.06 10.523 4.682 16.249 4.682 4.281 0 8.598-.905 12.643-2.792 9.159-4.271 15.36-12.841 16.981-22.411 7.944-7.693 14.128-17.225 17.935-27.683l8.19-22.501c.903.259 1.825.394 2.746.394 1.44 0 2.876-.315 4.221-.942 2.42-1.129 4.257-3.133 5.17-5.643l4.811-13.219.003-.006c.001-.002.001-.003.001-.005l15.038-41.315c0-.001.001-.001.001-.002v-.001l49.933-137.187c.913-2.51.794-5.226-.334-7.646-1.129-2.421-3.133-4.257-5.643-5.17l-16.079-5.853c-5.18-1.883-10.931.796-12.817 5.977l-3.104 8.527-5.596-2.037c.286-2.741-.003-5.471-.872-7.985-1.11-3.215-3.133-5.867-5.732-7.617l13.984-38.42 33.19 12.081-3.471 9.538c-.945 2.595.393 5.464 2.988 6.408.564.206 1.142.303 1.709.303 2.042 0 3.96-1.261 4.699-3.292l3.947-10.846c5.639-.486 10.772-4.153 12.832-9.811l1.493-4.102s0 0 0-.001c.913-2.51.794-5.226-.334-7.646-.789-1.693-2.014-3.091-3.533-4.096 4.362-6.235 10.886-10.611 18.469-12.244l39.649-8.537c1.639 1.061 4.098 2.033 6.005 2.033.703 0 1.41-.074 2.113-.225l22.353-4.785c2.612-.559 4.85-2.102 6.301-4.344.473-.731.834-1.511 1.1-2.316l47.6-10.189c5.393-1.15 8.841-6.476 7.686-11.867zm-232.838 115.762c1.232-3.385 3.982-5.711 6.467-5.711.434 0 .859.071 1.267.22 1.571.572 2.306 2.106 2.604 2.97.634 1.836.558 4.099-.209 6.207-1.447 3.976-4.989 6.49-7.734 5.492-2.745-.999-3.842-5.202-2.395-9.178zm-15.039 41.321c.767-2.108 2.163-3.891 3.829-4.89.576-.345 1.563-.816 2.669-.816.401 0 .817.062 1.235.214 2.745 1 3.842 5.203 2.396 9.178-.768 2.108-2.164 3.891-3.83 4.89-.784.471-2.335 1.173-3.905.602-1.571-.572-2.306-2.107-2.604-2.971-.634-1.836-.558-4.098.21-6.207zm2.156 19.3c.484.051.97.086 1.458.086 2.659 0 5.364-.755 7.827-2.232 2.281-1.368 4.258-3.273 5.8-5.557l5.596 2.037-11.62 31.925-5.596-2.037c.286-2.741-.003-5.471-.871-7.985-1.111-3.215-3.133-5.866-5.732-7.616zm-17.197 22.022c.768-2.108 2.164-3.891 3.83-4.89.575-.345 1.563-.816 2.669-.816.401 0 .818.062 1.236.214 1.571.572 2.306 2.107 2.604 2.971.634 1.836.558 4.098-.209 6.207-.767 2.109-2.163 3.891-3.829 4.89-.784.471-2.333 1.175-3.905.602-2.746-1-3.842-5.202-2.396-9.178zm2.157 19.299c.484.051.97.086 1.459.086 2.659 0 5.364-.755 7.827-2.232 2.281-1.368 4.257-3.273 5.8-5.557l5.596 2.037-11.62 31.925-5.596-2.037c.286-2.741-.003-5.471-.871-7.985-1.111-3.215-3.133-5.866-5.733-7.617zm-17.196 22.022c1.232-3.385 3.982-5.711 6.467-5.711.433 0 .859.071 1.267.219 1.571.572 2.306 2.107 2.604 2.971.634 1.836.558 4.098-.209 6.207-1.447 3.975-4.987 6.49-7.734 5.492-2.745-.999-3.842-5.203-2.395-9.178zm2.155 19.301c.476.05.952.084 1.429.084 5.192 0 10.336-2.941 13.639-7.796l5.615 2.044-11.62 31.925-5.596-2.037c.286-2.741-.003-5.471-.872-7.985-1.11-3.215-3.133-5.867-5.732-7.617zm-17.195 22.02c1.232-3.385 3.982-5.711 6.467-5.711.434 0 .859.071 1.267.22 1.571.572 2.306 2.106 2.604 2.97.634 1.836.558 4.099-.209 6.207-1.448 3.976-4.987 6.491-7.734 5.492-2.745-1-3.842-5.202-2.395-9.178zm-107.553 38.607c-1.312-1.635-1.908-3.683-1.679-5.767l6.829-62.181c.229-2.083 1.255-3.954 2.891-5.265 1.406-1.128 3.118-1.727 4.895-1.727.29 0 .581.016.873.048l3.394.373-8.542 77.782-3.393-.373c-2.087-.228-3.956-1.255-5.268-2.89zm102.691 65.969c-7.675 3.579-16.812 1.878-22.707-3.954l6.587-1.063c8.385-1.353 16.213-5.004 22.639-10.557l5.048-4.363c.679 8.264-3.891 16.357-11.567 19.937zm-20.313-22.554c1.147-3.151 3.453-5.668 6.493-7.085s6.45-1.566 9.601-.419c2.646.963 4.834 2.75 6.31 5.094l-2.11 1.824c-5.022 4.34-11.14 7.193-17.693 8.251l-2.753.444c-.848-2.638-.811-5.463.152-8.109zm50.06-21.897c-2.324 6.385-5.572 12.208-9.661 17.428-1.007-1.862-2.679-3.289-4.762-3.978-1.749-.577-3.578-.563-5.253-.009-2.638-3.862-6.387-6.814-10.869-8.445-5.661-2.061-11.788-1.793-17.247.753-5.461 2.546-9.603 7.067-11.664 12.729-1.631 4.482-1.78 9.251-.517 13.754-1.501.927-2.687 2.318-3.37 4.03-.71 1.781-.784 3.685-.272 5.451-6.052-.37-12.026-1.606-17.851-3.726l-3.758-1.367c-15.955-5.807-28.692-17.479-35.868-32.867-1.822-3.902-3.231-7.958-4.226-12.117l2.436.267c.298.033.594.049.889.049 1.812 0 3.556-.61 4.99-1.76 1.172-.94 2.029-2.165 2.521-3.546.179.024.355.062.535.082.76.083 1.517.125 2.27.125 4.635 0 9.1-1.562 12.767-4.501 4.266-3.419 6.943-8.295 7.538-13.729 1.229-11.22-6.894-21.347-18.115-22.575-.103-.011-.205-.01-.308-.02l.458-4.166c.102.013.202.036.305.047.766.084 1.53.126 2.29.126 4.627 0 9.085-1.559 12.75-4.496 4.268-3.421 6.946-8.299 7.542-13.736 1.229-11.219-6.894-21.346-18.117-22.576-.177-.019-.354-.02-.531-.034-.453-3.586-3.309-6.539-7.057-6.952l-3.605-.396c-1.26-11.747-4.029-23.227-8.251-34.249l83.654-23.825 1.267 10.184c.011.086.024.171.039.256 3.888 21.907 1.921 44.534-5.687 65.437l-18.257 50.16c-1.69 4.644-1.468 9.662.618 14.111 2.077 4.477 5.778 7.873 10.42 9.562 2.079.757 4.206 1.115 6.299 1.115 7.546 0 14.647-4.662 17.374-12.154l5.557-15.268c.476.05.953.084 1.429.084 5.192 0 10.336-2.941 13.638-7.795l5.615 2.044-3.104 8.527c-.913 2.51-.794 5.225.334 7.646 1.129 2.421 3.133 4.258 5.643 5.171l7.352 2.676zm-113.17-23.259 2.281-20.773c.107.008.213.009.32.021 5.731.627 9.883 5.807 9.254 11.545-.304 2.777-1.672 5.269-3.853 7.016-2.18 1.748-4.913 2.543-7.704 2.237-.099-.011-.198-.032-.298-.046zm4.922-44.82 2.281-20.773c.106.008.212.009.318.021 5.731.628 9.883 5.807 9.254 11.545-.305 2.779-1.674 5.273-3.855 7.022-2.18 1.747-4.912 2.541-7.696 2.231-.101-.011-.201-.032-.302-.046zm128.58 39.388-.006-.001-16.08-5.853 3.103-8.527 16.085 5.855zm6.523-17.923-16.085-5.854 11.62-31.925 16.084 5.854zm15.039-41.322-16.084-5.854 11.62-31.925 16.083 5.854zm15.038-41.321-16.082-5.854 11.62-31.925 16.081 5.853zm17.101-97.023 16.08 5.853-3.103 8.527-16.08-5.853zm-6.524 17.924 16.08 5.853-11.619 31.925-16.081-5.853zm-15.012-5.464 5.615 2.044-11.62 31.924-5.613-2.043c.644-6.377-1.874-12.405-6.59-15.587l3.14-8.627c.476.05.953.084 1.429.084 5.193 0 10.337-2.942 13.639-7.795zm84.072-132.065c1.074-.225 2.128.465 2.357 1.533.543 2.532 1.122 5.129 1.739 7.823l-17.902 3.737-2.41-9.709zm-37.297-1.633 8.427-2.092c.152-.038.297-.016.431.065s.221.199.259.351l4.578 18.446-9.621 2.008-4.489-18.089c-.075-.304.111-.614.415-.689zm-8.099 11.242 2.409 9.707c-11.121 3.105-20.754 9.741-27.618 19.051l-9.742-3.546c8.19-12.308 20.58-21.264 34.951-25.212zm18.641 60.006c-.943 2.591-3.819 3.931-6.409 2.989l-62.147-22.62 3.204-8.8 66.847 24.324zm23.388-34.445c-10.867 2.34-20.097 8.917-25.851 18.261l-31.483-11.459c5.971-7.001 14.032-11.809 23.184-13.715l68.598-14.319 2.827 13.206zm70.132-11.515-22.353 4.785-4.273-19.964 22.353-4.785 4.279 19.962zm8.739-6.947-2.116-9.884 21.61-4.625c2.533-.542 5.165-.42 7.614.353 4.35 1.374 11.141 2.867 18.715 2.208l.438 2.046z"/>
              <path d="m330.479 271.599h-11.949c-7.167 0-12.997 5.831-12.997 12.997v2.261c0 1.652-1.344 2.997-2.997 2.997h-15.078c-4.411 0-8 3.589-8 8v44.539c-2.681-1.448-5.745-2.273-9-2.273-10.477 0-19 8.523-19 19s8.523 19 19 19 19-8.523 19-19v-37.895h13.078c7.167 0 12.997-5.83 12.997-12.997v-2.261c0-1.652 1.344-2.997 2.997-2.997h10.301v26.551c-2.681-1.448-5.745-2.273-9-2.273-10.477 0-19 8.523-19 19s8.523 19 19 19 19-8.523 19-19v-66.298c0-4.604-3.747-8.351-8.352-8.351zm-60.021 96.521c-4.962 0-9-4.038-9-9s4.038-9 9-9 9 4.038 9 9-4.038 9-9 9zm35.075-59.891c0 1.652-1.344 2.997-2.997 2.997h-13.078v-11.372h13.078c1.031 0 2.034-.121 2.997-.349zm14.298 47.02c-4.962 0-9-4.038-9-9s4.038-9 9-9 9 4.038 9 9-4.038 9-9 9zm9-62.278h-10.301c-1.033 0-2.033.134-2.997.363 0 0 0-8.347 0-8.738 0-1.653 1.344-2.997 2.997-2.997h10.301z"/>
              <path d="m136.427 191.165c10.477 0 19-8.523 19-19v-37.895h13.078c7.167 0 12.997-5.831 12.997-12.997v-2.261c0-1.652 1.344-2.997 2.997-2.997h10.301v26.551c-2.681-1.448-5.745-2.273-9-2.273-10.477 0-19 8.523-19 19s8.523 19 19 19 19-8.523 19-19v-66.297c0-4.605-3.747-8.352-8.352-8.352h-11.95c-7.167 0-12.997 5.83-12.997 12.997v2.261c0 1.652-1.344 2.997-2.997 2.997h-15.078c-4.411 0-8 3.589-8 8v44.539c-2.681-1.448-5.745-2.273-9-2.273-10.477 0-19 8.523-19 19s8.524 19 19.001 19zm49.373-22.872c-4.962 0-9-4.038-9-9s4.038-9 9-9 9 4.038 9 9-4.038 9-9 9zm-4.298-70.652c0-1.652 1.344-2.997 2.997-2.997h10.301v11.372h-10.301c-1.033 0-2.033.134-2.997.363 0-.001 0-8.348 0-8.738zm-26.075 15.257h13.078c1.031 0 2.035-.121 2.997-.349v8.724c0 1.653-1.344 2.997-2.997 2.997h-13.078zm-19 50.267c4.962 0 9 4.038 9 9s-4.038 9-9 9-9-4.038-9-9 4.037-9 9-9z"/>
            </g>
          </g>
        </g>
      </g>
      <g>
        <path d="m284.458 447.541c-7.175 0-13.012-5.837-13.012-13.012s5.837-13.012 13.012-13.012 13.012 5.837 13.012 13.012-5.837 13.012-13.012 13.012zm0-16.024c-1.661 0-3.012 1.351-3.012 3.012s1.351 3.012 3.012 3.012 3.012-1.351 3.012-3.012-1.351-3.012-3.012-3.012z" fill="#6582fd"/>
      </g>
      <g>
        <path d="m72.079 197.949c-7.175 0-13.012-5.837-13.012-13.012s5.837-13.012 13.012-13.012 13.012 5.837 13.012 13.012-5.838 13.012-13.012 13.012zm0-16.023c-1.661 0-3.012 1.351-3.012 3.012s1.351 3.012 3.012 3.012 3.012-1.351 3.012-3.012-1.351-3.012-3.012-3.012z" fill="#6582fd"/>
      </g>
      <g>
        <path d="m362.336 178.735c-7.175 0-13.012-5.837-13.012-13.012s5.837-13.012 13.012-13.012 13.012 5.837 13.012 13.012-5.837 13.012-13.012 13.012zm0-16.023c-1.661 0-3.012 1.351-3.012 3.012s1.351 3.012 3.012 3.012 3.012-1.351 3.012-3.012-1.351-3.012-3.012-3.012z" fill="#6582fd"/>
      </g>
      <g>
        <path d="m211.378 64.311c-2.761 0-5-2.239-5-5 0-3.033-2.467-5.5-5.5-5.5-2.761 0-5-2.239-5-5s2.239-5 5-5c3.033 0 5.5-2.467 5.5-5.5 0-2.761 2.239-5 5-5s5 2.239 5 5c0 3.033 2.467 5.5 5.5 5.5 2.761 0 5 2.239 5 5s-2.239 5-5 5c-3.033 0-5.5 2.467-5.5 5.5 0 2.761-2.239 5-5 5z" fill="#6582fd"/>
      </g>
      <g>
        <path d="m338.831 423.663c-2.761 0-5-2.239-5-5 0-3.033-2.467-5.5-5.5-5.5-2.761 0-5-2.239-5-5s2.239-5 5-5c3.033 0 5.5-2.467 5.5-5.5 0-2.761 2.239-5 5-5s5 2.239 5 5c0 3.033 2.467 5.5 5.5 5.5 2.761 0 5 2.239 5 5s-2.239 5-5 5c-3.033 0-5.5 2.467-5.5 5.5 0 2.761-2.239 5-5 5z" fill="#6582fd"/>
      </g>
    </g>
    <g transform="matrix(1, 0, 0, 1, 88.733902, -186.516953)">
      <g/>
      <g style="" transform="matrix(0.185814, 0, 0, 0.185814, -213.180862, 984.122437)">
        <g>
          <g>
            <path d="m429.669 288.656c-6.01-9.303-12.378-19.163-18.071-29.558 10.402-32.253 17.732-59.271 20.391-69.351.671-2.545-.39-5.22-2.617-6.621-5.087-3.2-15.272-9.378-29.712-17.074 2.308-5.954 5.316-12.007 9.132-18.16 18.581-29.965 5.462-43.047-1.041-47.28-20.486-13.336-66.473-1.91-87.243 28.505-.23.337-.399.696-.537 1.062-7.055-2.643-14.357-5.251-21.918-7.785-13.816-4.631-27.127-8.582-39.711-11.952 20.107-5.006 41.558-9.014 63.601-11.192 2.389-.236 3.532-3.058 1.995-4.902l-18.091-21.709 7.597-27.284c.562-2.02-1.07-3.989-3.158-3.795-132.281 12.305-222.854 75.096-246.54 93.222-3.588 2.746-4.897 7.547-3.189 11.73l18.847 46.14c.351.859.934 1.604 1.684 2.15l27.326 19.91c-.456 1.559-.906 3.121-1.353 4.682-.099-.028-.189-.073-.291-.095-9.988-2.185-30.873-.862-38.415 19.775-3.933 10.761-1.257 22.15 7.74 32.936 6.385 7.655 13.771 12.356 14.083 12.552.597.377 1.244.606 1.899.708-.726 4.946-1.306 9.744-1.714 14.353-4.236 47.867 31.678 100.999 59.79 134.661-15.647 5.745-26.621 10.785-32.026 13.418-1.839.896-2.253 3.329-.822 4.792l19.735 20.169-10.255 28.464c-.876 2.431 1.519 4.761 3.921 3.808 13.515-5.361 47.044-18.122 79.626-26.533 36.553-9.436 93.068-18.843 158.536-11.723 5.39.586 10.259-3.253 10.971-8.628l6.321-47.756c.168-1.27-.152-2.554-.907-3.589-2.83-3.883-10.837-14.041-24.162-24.603 3.265-5.647 6.482-11.709 9.638-18.074.185.09.364.19.564.259 1.182.405 20.486 6.909 40.053 6.909 9.333 0 18.728-1.481 26.239-5.81 7.938-4.574 12.908-11.675 14.771-21.105 3.103-15.711-8.848-34.208-22.687-55.626zm-351.92-46.149c2.656-7.268 7.809-11.743 15.315-13.3 5.324-1.104 10.152-.389 11.308-.186-4.279 15.692-7.982 31.281-10.599 45.877-5.452-3.977-21.544-17.289-16.024-32.391zm251.704-108.701c17.614-24.604 56.855-35.223 72.842-24.814 5.016 3.266 11.425 11.977-2.002 33.63-3.938 6.351-7.084 12.61-9.549 18.773-16.436-8.42-37.15-18.131-61.291-27.589zm113.092 208.539c-1.295 6.559-4.548 11.261-9.943 14.374-18.076 10.426-52.821-.198-57.532-1.715 12.114-25.922 23.18-55.758 32.326-83.107 4.605 7.836 9.389 15.244 13.874 22.185 12.661 19.596 23.595 36.52 21.275 48.263z" fill="#2626bc" opacity=".1"/>
            <g>
              <path d="m386.416 384.364s-33.129-50.835-101.705-56.401l10.46 86.349z" fill="#6582fd"/>
              <path d="m79.941 169.966 105.342 76.753 45.328-128.537s-88.818-24.486-150.67 51.784z" fill="#6582fd"/>
              <g>
                <g>
                  <path d="m418.271 213.815c-13.995 45.941-36.495 111.476-61.308 151.175-27.43 43.885-95.702 64.579-138.393 73.522-22.928 4.803-46.684-3.161-62.085-20.812-28.676-32.866-70.683-90.527-66.121-142.078 6.148-69.471 50.949-181.599 60.214-204.201 1-2.439 3.464-3.936 6.09-3.711 15.805 1.354 72.303 7.526 141.383 30.683s117.884 52.284 131.312 60.729c2.232 1.403 3.295 4.083 2.623 6.632-1.11 4.21-3.034 11.371-5.656 20.632l-7.049 11.778z" fill="#fff"/>
                  <path d="m404.128 257.54c-4.41-16.074-15.727-41.085-44.237-50.641-30.928-10.368-67.345 7.486-88.003 40.706-2.548 4.093-4.578 8.443-6.091 12.957-2.847 8.494-3.844 17.566-2.913 26.574 1.993 19.332-16.658 34.275-35.094 28.095l-6.266-2.1c-14.636-4.906-21.352-20.514-16.88-33.855 1.162-3.466 3.079-6.785 5.809-9.715 9.462-10.153 15.385-23.145 16.641-36.971 3.537-38.959-14.761-75.154-45.69-85.522-27.929-9.362-50.858 3.331-63.658 13.584 13.599-41.55 28.016-77.479 32.833-89.228 1-2.44 3.463-3.938 6.091-3.713 15.804 1.354 72.299 7.524 141.382 30.681 69.082 23.157 117.882 52.283 131.309 60.729 2.232 1.404 3.294 4.086 2.622 6.636-3.26 12.357-13.524 50.115-27.855 91.783z" fill="#6582fd"/>
                  <path d="m214.426 347.863c-50.297-16.86-76.029-49.592-87.533-69.351-2.578-4.429-9.373-2.526-9.314 2.598.329 28.6 11.697 55.144 25.459 76.898 25.947 41.017 76.812 58.067 122.238 40.976 24.092-9.065 49.161-23.394 66.662-46.018 3.136-4.054-1.139-9.667-5.866-7.686-21.088 8.833-61.349 19.443-111.646 2.583z" fill="#6582fd"/>
                  <g fill="#2626bc">
                    <path d="m362.366 279.546c3.585.722 6.71-2.524 5.854-6.08-4.152-17.257-17.928-31.42-36.473-35.156-18.546-3.735-36.73 3.99-47.239 18.294-2.165 2.947-.541 7.15 3.044 7.872z"/>
                    <path d="m135.216 203.402c-3.296-1.585-3.833-6.058-1.007-8.38 13.714-11.268 33.243-14.267 50.293-6.07s26.905 25.322 26.669 43.069c-.048 3.657-3.878 6.031-7.174 4.447z"/>
                  </g>
                </g>
              </g>
              <g>
                <path d="m79.941 169.966-19.384-47.455c-1.709-4.183-.399-8.984 3.189-11.73 23.686-18.126 114.26-80.917 246.54-93.222 2.088-.194 3.72 1.775 3.158 3.795l-7.597 27.284 18.091 21.709c1.536 1.844.394 4.666-1.994 4.902-67.748 6.694-129.988 30.61-164.373 47.995-38.711 19.571-77.41 46.538-77.63 46.722z" fill="#fff"/>
              </g>
              <g>
                <path d="m126.786 477.127 10.255-28.464-19.735-20.169c-1.432-1.464-1.017-3.896.824-4.793 21.25-10.348 128.334-57.86 268.287-39.336l-6.577 49.687c-.711 5.375-5.581 9.214-10.971 8.628-65.468-7.121-121.983 2.287-158.536 11.723-32.583 8.411-66.111 21.172-79.626 26.533-2.402.952-4.797-1.378-3.921-3.809z" fill="#fff"/>
              </g>
            </g>
            <g>
              <g>
                <path d="m94.184 129.161c-1.667 0-3.297-.833-4.246-2.352-1.462-2.342-.75-5.427 1.593-6.89 7.089-4.426 14.122-8.669 20.903-12.609 2.386-1.387 5.447-.577 6.835 1.812 1.387 2.388.576 5.448-1.812 6.835-6.69 3.887-13.631 8.074-20.63 12.445-.824.514-1.739.759-2.643.759z" fill="#6582fd"/>
              </g>
              <g>
                <path d="m131.045 107.595c-1.777 0-3.497-.949-4.402-2.622-1.314-2.428-.411-5.462 2.018-6.777 3.4-1.84 6.781-3.621 10.048-5.293 2.458-1.258 5.471-.286 6.729 2.173 1.258 2.458.285 5.471-2.173 6.729-3.2 1.637-6.512 3.382-9.845 5.186-.755.41-1.571.604-2.375.604z" fill="#6582fd"/>
              </g>
              <g>
                <path d="m156.94 94.662c-1.9 0-3.716-1.089-4.554-2.931-1.144-2.514-.033-5.478 2.48-6.622 15.148-6.893 39.621-16.948 70.179-25.712 2.655-.761 5.424.773 6.185 3.428.761 2.654-.773 5.423-3.428 6.185-29.971 8.595-53.953 18.449-68.794 25.202-.671.305-1.375.45-2.068.45z" fill="#6582fd"/>
              </g>
              <g>
                <path d="m244.557 64.364c-2.246 0-4.288-1.524-4.851-3.803-.662-2.681.975-5.391 3.656-6.052 13.727-3.389 27.463-6.152 40.828-8.213 2.723-.425 5.283 1.45 5.703 4.18.421 2.729-1.45 5.283-4.18 5.703-13.072 2.016-26.515 4.72-39.955 8.039-.401.099-.804.146-1.201.146z" fill="#6582fd"/>
              </g>
            </g>
            <g>
              <path d="m158.252 445.691c-2.058 0-3.985-1.28-4.712-3.33-.923-2.603.438-5.461 3.041-6.384 7.375-2.617 14.665-5.084 21.666-7.333 2.631-.848 5.445.602 6.29 3.23.845 2.629-.602 5.445-3.23 6.29-6.906 2.219-14.1 4.654-21.382 7.238-.553.195-1.118.289-1.673.289z" fill="#6582fd"/>
            </g>
            <g>
              <path d="m200.309 432.193c-2.183 0-4.188-1.44-4.81-3.645-.749-2.658.798-5.419 3.456-6.169 3.445-.971 6.853-1.893 10.128-2.738 2.363-.61 4.809-1.22 7.333-1.825 2.688-.642 5.385 1.013 6.028 3.697.644 2.686-1.012 5.384-3.697 6.028-2.467.591-4.856 1.187-7.165 1.783-3.205.827-6.541 1.729-9.916 2.681-.452.127-.909.188-1.357.188z" fill="#6582fd"/>
            </g>
            <g>
              <path d="m238.111 423.268c-2.354 0-4.45-1.669-4.906-4.065-.517-2.713 1.264-5.331 3.976-5.847 37.348-7.113 75.114-9.558 112.247-7.267 2.756.17 4.853 2.542 4.683 5.299s-2.546 4.842-5.299 4.683c-36.301-2.239-73.231.152-109.76 7.109-.316.058-.631.088-.941.088z" fill="#6582fd"/>
            </g>
          </g>
          <path d="m429.669 264.656c-4.858-7.518-9.949-15.402-14.729-23.636 2.921-8.951 5.635-17.603 8.113-25.743.804-2.642-.685-5.435-3.327-6.24-2.639-.805-5.435.685-6.24 3.327-1.619 5.315-3.343 10.859-5.155 16.553-12.489-24.583-20.234-52.032-10.365-82.098 13.95 7.457 23.791 13.427 28.72 16.527.392.248.58.703.468 1.129-.918 3.481-2.872 10.782-5.637 20.554-.752 2.657.792 5.42 3.45 6.172.455.129.913.19 1.364.19 2.181 0 4.186-1.438 4.809-3.64 2.786-9.847 4.757-17.212 5.685-20.731 1.226-4.665-.701-9.538-4.804-12.133-5.16-3.245-15.606-9.577-30.424-17.458 1.988-4.458 4.361-8.969 7.193-13.537 18.581-29.965 5.462-43.047-1.041-47.28-19.75-12.857-63.192-2.692-84.899 25.307-7.457-2.809-15.194-5.581-23.212-8.27-6.964-2.333-14.043-4.564-21.173-6.694 13.982-2.874 28.716-5.223 43.969-6.731 2.947-.291 5.476-2.176 6.6-4.919 1.127-2.75.646-5.876-1.256-8.159l-16.411-19.693 6.894-24.757c.707-2.537.12-5.259-1.57-7.281-1.686-2.018-4.253-3.076-6.867-2.833-133.071 12.378-224.32 75.254-249.116 94.229-5.368 4.106-7.333 11.34-4.78 17.591l19.384 47.455c.356.871.949 1.606 1.69 2.146l25.611 18.666c-.192.664-.372 1.312-.561 1.971-10.804-.784-27.199 2.656-33.696 20.435-7.742 21.183 11.576 38.018 19.055 43.563-.889 5.829-1.572 11.352-2.031 16.543-4.105 46.457 27.428 96.977 56.489 132.899-12.609 4.856-21.476 8.958-25.929 11.126-2.303 1.122-3.939 3.298-4.376 5.821-.438 2.526.373 5.129 2.167 6.964l17.542 17.928-9.192 25.515c-1.081 3.001-.33 6.244 1.96 8.462 1.533 1.484 3.502 2.265 5.525 2.265.997 0 2.006-.189 2.983-.577 12.886-5.112 46.382-17.911 79.032-26.34 35.611-9.193 91.712-18.666 156.745-11.593 8.019.872 15.409-4.933 16.468-12.942l6.577-49.688c.146-1.105-.101-2.21-.656-3.163-.334-.512-7.986-12.172-23.195-24.96 2.707-4.852 5.377-9.972 8.005-15.293 6.933 2.013 21.3 5.593 35.82 5.593 9.333 0 18.728-1.481 26.239-5.81 7.938-4.574 12.908-11.675 14.771-21.105 3.104-15.712-8.847-34.209-22.686-55.627zm-27.375-179.664c11.685 7.607 3.761 24.336-2.002 33.63-2.961 4.775-5.473 9.499-7.588 14.169-16.196-8.287-36.48-17.795-60.022-27.082 18.804-21.657 54.541-30.528 69.612-20.717zm-337.108 35.629c-.851-2.083-.194-4.497 1.599-5.868 24.08-18.427 112.23-79.169 241.062-91.935l-6.816 24.48c-.44 1.583-.076 3.28.976 4.542l15.686 18.823c-79.251 8.57-144.156 38.907-162.377 48.119-30.499 15.419-60.937 35.369-73.081 43.574zm23.426 49.476c5.611-3.777 14.973-9.953 26.355-16.984-3.398 10.189-6.515 19.983-9.348 29.374zm-10.863 48.41c4.396-12.027 15.02-13.959 21.528-13.93-4.227 15.565-7.542 29.822-9.944 42.737-6.725-5.957-15.967-16.815-11.584-28.807zm297.19 159.463c-6.591-.706-13.203-1.275-19.831-1.717 2.224-2.813 4.262-5.689 6.092-8.611.401-.641.799-1.307 1.199-1.961 5.194 4.478 9.385 8.754 12.54 12.289zm-22.217-15.633c-2.848 4.549-6.271 8.994-10.186 13.241-26.051-1.079-52.299-.136-78.453 2.86-2.744.314-4.713 2.793-4.398 5.536.314 2.744 2.797 4.718 5.536 4.398 38.648-4.427 77.503-4.32 115.58.319l-5.917 44.705c-.354 2.668-2.803 4.61-5.474 4.313-66.532-7.237-123.909 2.451-160.326 11.852-30.14 7.781-60.91 19.193-76.097 25.106l8.758-24.31c.65-1.804.211-3.821-1.13-5.192l-17.782-18.173c14.588-6.87 56.166-24.64 114.575-34.649 2.722-.466 4.55-3.051 4.083-5.773s-3.045-4.547-5.773-4.083c-34.287 5.876-62.93 14.394-83.941 21.915-28.444-34.598-60.349-84.058-56.436-128.341 2.754-31.111 14.128-76.372 32.901-130.965 9.949-5.868 20.756-11.915 31.585-17.391 12.895-6.519 49.682-23.845 98.382-36.115 12.891 3.478 25.755 7.353 38.252 11.54 37.792 12.67 69.469 27.146 92.516 38.981-13.021 37.587-.839 71.433 15.088 99.974-13.775 41.74-31.859 89.086-51.343 120.252zm89.823-43.992c-1.295 6.559-4.548 11.261-9.943 14.374-14.972 8.636-41.374 2.83-52.68-.281 11.442-24.573 21.947-52.557 30.857-78.9 3.53 5.77 7.096 11.291 10.49 16.544 12.662 19.596 23.596 36.52 21.276 48.263z" fill="#2626bc"/>
        </g>
        <g>
          <path d="m456.196 248.388c-7.175 0-13.012-5.837-13.012-13.012s5.837-13.012 13.012-13.012 13.012 5.837 13.012 13.012-5.837 13.012-13.012 13.012zm0-16.024c-1.661 0-3.012 1.351-3.012 3.012s1.351 3.012 3.012 3.012 3.012-1.351 3.012-3.012-1.351-3.012-3.012-3.012z" fill="#6582fd"/>
        </g>
        <g>
          <path d="m48.047 201.643c-7.175 0-13.012-5.837-13.012-13.012s5.837-13.012 13.012-13.012 13.012 5.837 13.012 13.012-5.837 13.012-13.012 13.012zm0-16.024c-1.661 0-3.012 1.351-3.012 3.012s1.351 3.012 3.012 3.012 3.012-1.351 3.012-3.012-1.351-3.012-3.012-3.012z" fill="#6582fd"/>
        </g>
        <g>
          <path d="m90.021 413.065c-2.761 0-5-2.239-5-5 0-3.033-2.467-5.5-5.5-5.5-2.761 0-5-2.239-5-5s2.239-5 5-5c3.033 0 5.5-2.467 5.5-5.5 0-2.761 2.239-5 5-5s5 2.239 5 5c0 3.033 2.467 5.5 5.5 5.5 2.761 0 5 2.239 5 5s-2.239 5-5 5c-3.033 0-5.5 2.467-5.5 5.5 0 2.761-2.238 5-5 5z" fill="#6582fd"/>
        </g>
        <g>
          <path d="m364.57 52.137c-2.761 0-5-2.239-5-5 0-3.033-2.467-5.5-5.5-5.5-2.761 0-5-2.239-5-5s2.239-5 5-5c3.033 0 5.5-2.467 5.5-5.5 0-2.761 2.239-5 5-5s5 2.239 5 5c0 3.033 2.467 5.5 5.5 5.5 2.761 0 5 2.239 5 5s-2.239 5-5 5c-3.032 0-5.5 2.467-5.5 5.5 0 2.761-2.238 5-5 5z" fill="#6582fd"/>
        </g>
        <g>
          <path d="m479.991 291.535c-2.761 0-5-2.239-5-5 0-3.033-2.467-5.5-5.5-5.5-2.761 0-5-2.239-5-5s2.239-5 5-5c3.033 0 5.5-2.467 5.5-5.5 0-2.761 2.239-5 5-5s5 2.239 5 5c0 3.033 2.467 5.5 5.5 5.5 2.761 0 5 2.239 5 5s-2.239 5-5 5c-3.033 0-5.5 2.467-5.5 5.5 0 2.761-2.239 5-5 5z" fill="#6582fd"/>
        </g>
      </g>
    </g>
  </g></svg>