<?xml version="1.0"?>
<svg xmlns="http://www.w3.org/2000/svg" xmlns:xlink="http://www.w3.org/1999/xlink" xmlns:svgjs="http://svgjs.com/svgjs" version="1.1" width="512" height="512" x="0" y="0" viewBox="0 0 64 64" style="enable-background:new 0 0 512 512" xml:space="preserve" class=""><g><g xmlns="http://www.w3.org/2000/svg"><g><g><path d="m36 27c-1.654 0-3-1.346-3-3s1.346-3 3-3 3 1.346 3 3-1.346 3-3 3z" fill="#19ff83" data-original="#f0bc5e"/></g></g><g><path d="m53 31v-9h-8v9h-6.125l-1.345 2.152c-.33.528-.908.848-1.53.848s-1.2-.32-1.53-.848l-1.345-2.152h-6.125v-9h-8v9h-5v8h5v7h8v-7h11v7h8v-7h12v-8z" fill="#19ff83" data-original="#f0bc5e"/></g><g><path d="m13 49h34v9h-34z" fill="#19ff83" data-original="#f0bc5e"/></g><g><path d="m58 5h-1v-2c0-1.103-.897-2-2-2h-2c-1.103 0-2 .897-2 2v2h-4v-2c0-1.103-.897-2-2-2h-2c-1.103 0-2 .897-2 2v2h-10v-2c0-1.103-.897-2-2-2h-2c-1.103 0-2 .897-2 2v2h-4v-2c0-1.103-.897-2-2-2h-2c-1.103 0-2 .897-2 2v2h-9c-2.757 0-5 2.243-5 5v42c0 1.654 1.346 3 3 3h5v5c0 1.654 1.346 3 3 3h37.171c.801 0 1.555-.312 2.122-.879l10.828-10.828c.567-.566.879-1.32.879-2.122v-39.171c0-2.757-2.243-5-5-5zm-5-2h2l.001 6h-2.001zm-10 0h2l.001 6h-2.001zm-16 0h2l.001 6h-2.001zm-10 0h2l.001 6h-2.001zm0 8h2c1.103 0 2-.897 2-2v-2h4v2c0 1.103.897 2 2 2h2c1.103 0 2-.897 2-2v-2h10v2c0 1.103.897 2 2 2h2c1.103 0 2-.897 2-2v-2h4v2c0 1.103.897 2 2 2h2c1.103 0 2-.897 2-2v-2h1c1.654 0 3 1.346 3 3v3h-50v-3c0-1.13-.391-2.162-1.026-3h5.026v2c0 1.103.897 2 2 2zm-14 41v-42c0-1.654 1.346-3 3-3 1.302 0 2.402.839 2.816 2h-.816c-1.654 0-3 1.346-3 3v41h-1c-.551 0-1-.449-1-1zm4 1v-41c0-.551.449-1 1-1h1v42zm4 7v-45h50v34h-9c-1.654 0-3 1.346-3 3v9h-37c-.551 0-1-.449-1-1zm40-.414v-7.586c0-.551.449-1 1-1h7.586z" fill="#000000" data-original="#000000" class=""/><path d="m59 21h-16.685c-1.126-2.361-3.53-4-6.315-4s-5.189 1.639-6.315 4h-16.685v26h46zm-28 3c0-2.757 2.243-5 5-5s5 2.243 5 5v.279c0 .938-.263 1.854-.76 2.65l-3.558 5.693c-.296.474-1.067.474-1.363 0l-3.559-5.693c-.497-.795-.76-1.711-.76-2.65zm26 21h-42v-22h14.08c-.047.328-.08.66-.08 1v.279c0 1.314.368 2.597 1.064 3.709l3.558 5.693c.516.826 1.404 1.319 2.378 1.319s1.862-.493 2.378-1.318l3.558-5.692c.696-1.114 1.064-2.397 1.064-3.711v-.279c0-.34-.033-.672-.08-1h14.08z" fill="#000000" data-original="#000000" class=""/><path d="m13 49h14v2h-14z" fill="#000000" data-original="#000000" class=""/><path d="m29 49h18v2h-18z" fill="#000000" data-original="#000000" class=""/><path d="m13 53h34v2h-34z" fill="#000000" data-original="#000000" class=""/><path d="m13 57h34v2h-34z" fill="#000000" data-original="#000000" class=""/></g></g></g></svg>
