<?xml version="1.0"?>
<svg xmlns="http://www.w3.org/2000/svg" xmlns:xlink="http://www.w3.org/1999/xlink" xmlns:svgjs="http://svgjs.com/svgjs" version="1.1" width="512" height="512" x="0" y="0" viewBox="0 0 64 64" style="enable-background:new 0 0 512 512" xml:space="preserve"><g><g xmlns="http://www.w3.org/2000/svg"><g><g><path d="m41 55h-18v-20h18z" fill="#19ff83" data-original="#f0bc5e"/></g></g><g><g><path d="m15 15h-6v-6h6z" fill="#19ff83" data-original="#f0bc5e"/></g></g><g><g><path d="m55 15h-6v-6h6z" fill="#19ff83" data-original="#f0bc5e"/></g></g><g><path d="m31 27h6v2h-6z" fill="#000000" data-original="#000000"/><path d="m27 27h2v2h-2z" fill="#000000" data-original="#000000"/><path d="m3 3h8v-2h-10v10h2z" fill="#000000" data-original="#000000"/><path d="m3 45h-2v10h10v-2h-8z" fill="#000000" data-original="#000000"/><path d="m53 1v2h8v8h2v-10z" fill="#000000" data-original="#000000"/><path d="m61 53h-8v2h10v-10h-2z" fill="#000000" data-original="#000000"/><path d="m59 51v-46h-54v46h14v7c0 2.757 2.243 5 5 5h16c2.757 0 5-2.243 5-5v-7zm-2-34h-10v-10h10zm-40-10v10h-10v-10zm-10 42v-30h12v-12h26v12h12v30h-12v-21c0-2.757-2.243-5-5-5h-16c-2.757 0-5 2.243-5 5v21zm36-18h-22v-3c0-1.654 1.346-3 3-3h16c1.654 0 3 1.346 3 3zm-3 30h-16c-1.654 0-3-1.346-3-3v-.026c.838.635 1.87 1.026 3 1.026h16c1.13 0 2.162-.391 3-1.026v.026c0 1.654-1.346 3-3 3zm0-4h-16c-1.654 0-3-1.346-3-3v-21h22v21c0 1.654-1.346 3-3 3z" fill="#000000" data-original="#000000"/><path d="m27 21h2v-12h-8v2h6z" fill="#000000" data-original="#000000"/><path d="m25 19h-2v-4h2v-2h-4v8h4z" fill="#000000" data-original="#000000"/><path d="m9 23h6v4h2v-6h-8z" fill="#000000" data-original="#000000"/><path d="m11 27h2v-2h-4v6h2z" fill="#000000" data-original="#000000"/><path d="m13 31h2v2h2v-4h-4z" fill="#000000" data-original="#000000"/><path d="m11 33h-2v4h8v-2h-6z" fill="#000000" data-original="#000000"/><path d="m9 41h6v6h2v-8h-8z" fill="#000000" data-original="#000000"/><path d="m9 47h2v-2h2v-2h-4z" fill="#000000" data-original="#000000"/><path d="m49 23h6v-2h-8v6h2z" fill="#000000" data-original="#000000"/><path d="m51 27h2v4h2v-6h-4z" fill="#000000" data-original="#000000"/><path d="m49 31h2v-2h-4v4h2z" fill="#000000" data-original="#000000"/><path d="m55 33h-2v2h-6v2h8z" fill="#000000" data-original="#000000"/><path d="m49 41h6v-2h-8v8h2z" fill="#000000" data-original="#000000"/><path d="m51 45h2v2h2v-4h-4z" fill="#000000" data-original="#000000"/><path d="m31 35h-2v6h-6v2h8z" fill="#000000" data-original="#000000"/><path d="m35 55h2v-4h4v-2h-6z" fill="#000000" data-original="#000000"/><path d="m37 41h-2v-2h-2v4h4z" fill="#000000" data-original="#000000"/><path d="m31 45h-4v6h2v-4h2z" fill="#000000" data-original="#000000"/><path d="m33 45h4v2h-4z" fill="#000000" data-original="#000000"/><path d="m31 49h2v2h-2z" fill="#000000" data-original="#000000"/><path d="m37 13h-4v-4h-2v6h6z" fill="#000000" data-original="#000000"/><path d="m41 16h2v-7h-8v2h6z" fill="#000000" data-original="#000000"/><path d="m33 19h4v-2h-6v4h2z" fill="#000000" data-original="#000000"/><path d="m39 17h4v2h-4z" fill="#000000" data-original="#000000"/><path d="m43 21h2v2h-2z" fill="#000000" data-original="#000000"/></g></g></g></svg>
