<?xml version="1.0"?>
<svg xmlns="http://www.w3.org/2000/svg" xmlns:xlink="http://www.w3.org/1999/xlink" xmlns:svgjs="http://svgjs.com/svgjs" version="1.1" width="512" height="512" x="0" y="0" viewBox="0 0 62 62" style="enable-background:new 0 0 512 512" xml:space="preserve"><g><g xmlns="http://www.w3.org/2000/svg"><g><path d="m41.128 22.134h-.128v4.866h-4v-4.874l-.128.008c-4.11.529-6.872 2.485-6.872 4.866 0 2.851 3.869 5 9 5s9-2.149 9-5c0-2.381-2.762-4.337-6.872-4.866z" fill="#19ff83" data-original="#f0bc5e"/></g><path d="m62 2h-20c0-1.103-.897-2-2-2h-2c-1.103 0-2 .897-2 2v6h-36v54h54v-46h8zm-24 0h2v24h-2zm-36 12.414 21.378 21.379c.39.39.39 1.024 0 1.414l-21.378 21.379zm9.414 45.586 17.379-17.379c.377-.379 1.036-.379 1.414 0l17.379 17.379zm39 0-18.792-18.793c-1.134-1.133-3.11-1.133-4.243 0l-18.793 18.793h-5.172l21.379-21.379c1.168-1.17 1.168-3.072 0-4.242l-22.793-22.793v-1.586h3.586l32.292 32.293c.567.566 1.32.879 2.122.879s1.555-.313 2.121-.879l9.879-9.879v5.172l-7.293 7.293c-1.168 1.17-1.168 3.072 0 4.242l7.293 7.293v3.586zm1.586-19.586v13.172l-5.878-5.879c-.39-.39-.39-1.024 0-1.414zm0-10.828-11.293 11.293c-.377.379-1.036.379-1.414 0l-30.879-30.879h27.586v18h6v-12h10zm8-15.586h-18v-10h18z" fill="#000000" data-original="#000000"/></g></g></svg>
