<svg id="Capa_1" enable-background="new 0 0 512 512" height="512" viewBox="0 0 512 512" width="512" xmlns="http://www.w3.org/2000/svg" xmlns:xlink="http://www.w3.org/1999/xlink"><linearGradient id="SVGID_1_" gradientUnits="userSpaceOnUse" x1="5.563" x2="506.437" y1="256" y2="256"><stop offset="0" stop-color="#d1ddff" stop-opacity="0"/><stop offset="1" stop-color="#b6c4ff"/></linearGradient><g><g><path d="m19.628 431.023c-5.307 119.449 129.864 10.738 200.652 7.143 33.357-1.694 62.546 23.233 90.573 39.77 144.628 85.337 240.463.584 174.158-146.056-39.631-87.647-3.457-174.619-7.048-263.278-2.547-62.897-52.748-84.654-106.561-56.461-97.628 51.147-117.682 31.794-214.55-2.025-62.933-21.972-173.186 24.648-147.469 90.716 79.032 203.038 13.911 247.685 10.245 330.191z" fill="url(#SVGID_1_)"/></g><g><g><g fill="#2626bb" opacity=".1"><path d="m480.3 417.751-70.84-166.08c-1.23-2.9-3.77-5.05-6.83-5.79-.02-.01-.05-.01-.07-.02l-64.054-15.076c-.425-24.961-10.147-49.793-29.195-68.841-15.876-15.876-35.77-25.282-56.409-28.222.228-1.713.361-3.383.361-4.986 0-27.611-22.383-49.994-49.994-49.994s-49.994 22.383-49.994 49.994c0 10.447 5.089 23.419 12.02 36.242-19.082 20.73-27.791 47.572-26.121 73.884l-29.736 6.999c-.02.01-.05.01-.07.02-3.06.74-5.6 2.89-6.83 5.79l-70.838 166.08c-1.7 3.98 2.1 8.09 6.2 6.7l110.91-37.5c.05-.02.11-.04.16-.05h.01l1.56-.53 1.57.62c.05.01.09.03.14.05l100.08 39.54c1.18.46 2.43.7 3.67.7s2.49-.24 3.67-.7l100.08-39.54c.05-.02.09-.04.14-.05l.707-.279 35.964 35.964c3.905 3.905 10.237 3.905 14.142 0l14.692-14.692 48.704 16.467c4.101 1.39 7.901-2.72 6.201-6.7z"/><path d="m358.432 190.359h29.291c2.762 0 5-2.238 5-5s-2.238-5-5-5h-29.291c-2.762 0-5 2.238-5 5s2.238 5 5 5z"/><path d="m358.432 210.741h52.583c2.762 0 5-2.238 5-5s-2.238-5-5-5h-52.583c-2.762 0-5 2.238-5 5s2.238 5 5 5z"/><path d="m367.219 165.285c1.891 0 3.778-.398 5.539-1.17l5.4 5.401c.977.977 2.257 1.465 3.536 1.465s2.559-.488 3.535-1.464c1.953-1.953 1.953-5.119.001-7.071l-5.402-5.402c2.21-5.049 1.265-11.159-2.861-15.287 0 0 0 0-.001 0-5.375-5.377-14.121-5.374-19.498 0-5.374 5.376-5.374 14.122.001 19.496 2.688 2.688 6.219 4.032 9.75 4.032zm-2.679-16.458c.738-.738 1.708-1.107 2.678-1.107s1.939.369 2.678 1.107c1.476 1.476 1.476 3.876.003 5.353-.001.001-.002.001-.002.002-.001.001-.001.002-.002.003-1.477 1.473-3.878 1.475-5.354-.002-1.477-1.477-1.477-3.879-.001-5.356z"/></g><g><g><g><g><g fill="#6582fd"><path d="m184.2 204.551-33.66 157.82-1.56.53h-.01c-.05.01-.11.03-.16.05l-110.91 37.5c-4.1 1.39-7.9-2.72-6.2-6.7l23.78-55.75 13.662-20.307.877-13.779 32.521-76.244c1.23-2.9 3.77-5.05 6.83-5.79.02-.01.05-.01.07-.02l72.4-17.04c.78-.19 1.57-.27 2.36-.27z"/><path d="m256 223.021v81.12l-5 17.885 5 18.735v62.52c-1.24 0-2.49-.24-3.67-.7l-100.08-39.54c-.05-.02-.09-.04-.14-.05l-1.57-.62 13.383-62.749 7.38-15.536-.649-16.024 13.546-63.511c.83.01 1.66.12 2.46.33h.01l68.06 17.81c.02.01.04.01.06.01z"/><path d="m361.46 362.371-1.57.62c-.05.01-.09.03-.14.05l-100.08 39.54c-1.18.46-2.43.7-3.67.7v-180.26l1.21-.32c.02 0 .04 0 .06-.01l68.06-17.81h.01c.8-.21 1.63-.32 2.46-.33z"/><path d="m474.1 400.451-110.91-37.5c-.05-.02-.11-.04-.16-.05l-1.57-.53-13.152-61.665 1.612-16.575-8.574-16.069-13.546-63.511c.79 0 1.58.08 2.36.27l72.4 17.04c.02.01.05.01.07.02 3.06.74 5.6 2.89 6.83 5.79l32.521 76.244 1.882 16.135 12.657 17.951 23.78 55.751c1.7 3.98-2.1 8.089-6.2 6.699z"/></g><g fill="#fff"><path d="m441.979 303.916-100.629-35.855-85.35 36.08-85.35-36.08-100.629 35.855-14.535 34.087 108.434-38.382 92.08 41.14 92.08-41.14 108.434 38.382z"/><path d="m170.65 268.061-6.73 31.56 92.08 41.14v-36.62z"/><path d="m441.979 303.916-100.629-35.855 6.73 31.56 108.434 38.382z"/></g></g></g></g><g><path d="m308.276 262.187h23.275v54.953h-23.275z" fill="#6582fd" transform="matrix(.707 -.707 .707 .707 -111.122 311.054)"/><path d="m179.58 288.868c39.053 28.83 94.364 25.561 129.731-9.806s38.636-90.678 9.805-129.732l-12.592-7.593-8.592-13.593c-39.054-28.836-94.369-25.569-129.738 9.8s-38.636 90.684-9.801 129.738l13.594 8.593z" fill="#fff"/><g><path d="m309.316 137.946c3.599 3.599 6.873 7.41 9.801 11.384l-139.534 139.534c-3.974-2.927-7.785-6.201-11.384-9.8s-6.873-7.411-9.8-11.384l139.533-139.533c3.973 2.926 7.785 6.2 11.384 9.799z" fill="#6582fd"/></g><g><path d="m318.439 214.26c-.857 11.929-4.379 23.702-10.568 34.351l-14.013 11.389-12.697 16.232c-30.852 19.356-72.053 15.611-98.9-11.236-.659-.659-1.304-1.326-1.935-2.002l-1.876-9.981-11.511-9.452c-4.525-9.267-7.149-19.228-7.872-29.3l5.756-19.378.993-19.034c3.868-8.644 9.35-16.742 16.445-23.838 31.2-31.2 81.785-31.2 112.985 0 7.096 7.096 12.578 15.194 16.446 23.839l2.015 22.161z" fill="#6582fd"/></g><path d="m318.44 214.26h-44.91l34.34 34.35c-3.4 5.86-7.61 11.38-12.62 16.39-4.35 4.35-9.08 8.1-14.09 11.23l-13.24-13.24h-87.59c-5.54-5.92-10-12.48-13.39-19.43h81.55l-29.29-29.3h-60.13c-.94-13.04 1.31-26.26 6.75-38.41h145.87c5.44 12.15 7.69 25.37 6.75 38.41z" fill="#fff"/><path d="m428.93 380.45-18.23 18.23c-3.9 3.9-10.23 3.9-14.14 0l-61.85-61.86-.468-7.533 25.291-25.299 7.537.462 61.86 61.86c3.9 3.91 3.9 10.24 0 14.14z" fill="#6582fd"/><path d="m367.071 304.455-16.34-16.34c-3.905-3.905-10.237-3.905-14.142 0l-18.223 18.223c-3.905 3.905-3.905 10.237 0 14.142l16.34 16.34z" fill="#fff"/></g></g><g><g><path d="m253.264 104.737c0 27.863-36.202 73.692-46.993 86.733-1.557 1.882-4.443 1.882-6.001 0-10.791-13.042-46.993-58.87-46.993-86.733 0-27.611 22.383-49.994 49.993-49.994s49.994 22.383 49.994 49.994z" fill="#6582fd"/><g fill="#2626bb"><path d="m484.898 391.788-70.835-166.069c-1.827-4.31-5.623-7.547-10.168-8.677-.062-.018-.127-.033-.19-.049l-35.489-8.351c-2.696-.635-5.381 1.034-6.013 3.722-.633 2.688 1.034 5.38 3.722 6.013l35.395 8.328c.045.013.09.023.135.035 1.521.367 2.794 1.444 3.407 2.892l70.84 166.082-41.374-13.992c1.644-2.447 2.528-5.325 2.528-8.34 0-4.007-1.561-7.773-4.394-10.605l-78.195-78.196c-1.45-1.45-3.146-2.561-4.991-3.305l-9.561-44.832c9.673-35.176.721-74.445-26.867-102.033-15.053-15.054-33.86-24.98-54.611-28.874.006-.265.028-.537.028-.8 0-30.323-24.67-54.993-54.993-54.993-30.324 0-54.994 24.67-54.994 54.993 0 15.731 10.154 36.019 21.704 54.017-10.463 14.382-16.12 31.626-16.12 49.747 0 22.68 8.83 44 24.87 60.03 16.55 16.55 38.28 24.83 60.02 24.83s43.48-8.28 60.03-24.83c16.04-16.03 24.87-37.35 24.87-60.03 0-22.67-8.83-43.99-24.87-60.02-12.65-12.65-28.342-20.449-44.738-23.424 1.187-3.265 2.173-6.474 2.882-9.581 18.551 3.592 35.366 12.52 48.852 26.005 36.956 36.957 36.956 97.09 0 134.047-17.903 17.902-41.706 27.762-67.023 27.762-25.318 0-49.121-9.859-67.023-27.762-28.574-28.575-35.901-72.176-18.231-108.495 1.208-2.483.175-5.476-2.309-6.684-2.482-1.209-5.476-.173-6.684 2.309-7.482 15.378-10.895 31.936-10.503 48.29l-25.707 6.046c-.064.015-.129.031-.192.049-4.544 1.13-8.34 4.367-10.162 8.666l-70.841 166.077c-1.573 3.682-.862 7.792 1.855 10.727 2.715 2.932 6.756 3.958 10.544 2.674l110.817-37.469c.029-.008.06-.017.09-.025.024.009.049.017.073.025l100.031 39.521c1.773.691 3.619 1.042 5.486 1.042s3.713-.351 5.507-1.05l97.871-38.667 33.649 33.649c2.924 2.925 6.766 4.387 10.606 4.387s7.683-1.462 10.606-4.387l12.5-12.501 45.756 15.474c1.081.366 2.182.545 3.268.545 2.72 0 5.339-1.121 7.279-3.218 2.719-2.935 3.43-7.045 1.857-10.725zm-326.622-287.052c0-24.81 20.185-44.993 44.994-44.993s44.993 20.184 44.993 44.993c0 20.482-23.08 55.842-44.993 82.513-21.914-26.67-44.994-62.03-44.994-82.513zm108.674 34.384c9.01 3.66 17.46 9.13 24.76 16.43 14.15 14.14 21.94 32.95 21.94 52.95 0 20.01-7.79 38.81-21.94 52.96-29.2 29.2-76.71 29.2-105.91 0-14.15-14.15-21.94-32.95-21.94-52.96 0-14.708 4.224-28.771 12.084-40.806 7.667 11.084 15.297 20.708 20.473 26.963 1.695 2.049 4.193 3.225 6.854 3.225 2.659 0 5.157-1.176 6.853-3.225 9.987-12.069 29.099-36.647 39.993-60.139 5.735.873 11.384 2.403 16.833 4.602zm-120.705 219.419-109.946 37.173 70.845-166.091c.608-1.437 1.881-2.514 3.402-2.881.045-.012.09-.022.135-.035l24.052-5.656c2.655 21.933 12.224 42.956 28.115 59.658zm104.755 38.139-94.687-37.408 15.046-70.529c18.849 15.887 42.454 24.547 67.394 24.547 4.124 0 8.211-.241 12.247-.708zm82.207-142.806 5.774 27.073c-1.022.338-2.006.781-2.935 1.331l-12.376-12.376c3.696-5.106 6.875-10.473 9.537-16.028zm-20.36 28.726c1.576-1.576 3.083-3.194 4.537-4.843l11.248 11.247-9.384 9.384-11.242-11.248c1.651-1.459 3.269-2.968 4.841-4.54zm-51.847 114.081v-85.764c14.123-3.041 27.418-8.957 39.159-17.484l12.364 12.37c-1.35 2.283-2.086 4.886-2.086 7.608 0 4.007 1.56 7.773 4.394 10.606l36.84 36.84zm164.392-19.761-18.223 18.224c-1.951 1.949-5.121 1.949-7.072 0l-78.197-78.197c-1.949-1.95-1.949-5.122 0-7.072l18.224-18.223c1.951-1.949 5.123-1.949 7.072 0l78.195 78.197c.944.943 1.464 2.199 1.464 3.534 0 1.337-.519 2.593-1.463 3.537z"/><path d="m358.432 166.359h29.291c2.762 0 5-2.238 5-5s-2.238-5-5-5h-29.291c-2.762 0-5 2.238-5 5s2.238 5 5 5z"/><path d="m358.432 186.741h52.583c2.762 0 5-2.238 5-5s-2.238-5-5-5h-52.583c-2.762 0-5 2.238-5 5s2.238 5 5 5z"/><path d="m367.219 141.285c1.891 0 3.778-.398 5.539-1.17l5.4 5.401c.977.977 2.257 1.465 3.536 1.465s2.559-.488 3.535-1.464c1.953-1.953 1.953-5.119.001-7.071l-5.402-5.402c2.21-5.049 1.265-11.159-2.861-15.287 0 0 0 0-.001 0-5.375-5.377-14.121-5.374-19.498 0-5.374 5.376-5.374 14.122.001 19.496 2.688 2.688 6.219 4.032 9.75 4.032zm-2.679-16.458c.738-.738 1.708-1.107 2.678-1.107s1.939.369 2.678 1.107c1.476 1.476 1.476 3.876.003 5.353-.001.001-.002.001-.002.002-.001.001-.001.002-.002.003-1.477 1.473-3.878 1.475-5.354-.002-1.477-1.477-1.477-3.879-.001-5.356z"/></g><circle cx="203.27" cy="104.737" fill="#fff" r="28.519"/></g></g></g><g fill="#6582fd"><path d="m441.653 133.314c-1.279 0-2.56-.488-3.535-1.465l-5.465-5.464-5.465 5.464c-1.951 1.953-5.119 1.953-7.07 0-1.953-1.952-1.953-5.118 0-7.07l9-9c1.951-1.953 5.119-1.953 7.07 0l9 9c1.953 1.952 1.953 5.118 0 7.07-.975.977-2.255 1.465-3.535 1.465z"/><path d="m148.054 431.383c-1.279 0-2.56-.488-3.535-1.465l-5.465-5.464-5.465 5.464c-1.951 1.953-5.119 1.953-7.07 0-1.953-1.952-1.953-5.118 0-7.07l9-9c1.951-1.953 5.119-1.953 7.07 0l9 9c1.953 1.952 1.953 5.118 0 7.07-.976.977-2.256 1.465-3.535 1.465z"/><g><g><path d="m384.249 74.059c-.845 0-1.7-.214-2.485-.665l-.099-.057c-2.395-1.375-3.221-4.432-1.846-6.826 1.376-2.395 4.43-3.222 6.826-1.846l.099.057c2.395 1.375 3.221 4.432 1.846 6.826-.925 1.609-2.609 2.511-4.341 2.511z"/><path d="m409.15 88.436c-.852 0-1.714-.218-2.504-.676l-.098-.057c-2.389-1.386-3.202-4.445-1.816-6.834 1.386-2.388 4.444-3.201 6.834-1.816l.098.057c2.389 1.386 3.202 4.445 1.816 6.834-.927 1.598-2.605 2.492-4.33 2.492z"/></g><g><path d="m409.062 74.059c-1.725 0-3.402-.894-4.33-2.492-1.386-2.389-.572-5.448 1.816-6.834l.098-.057c2.392-1.386 5.448-.57 6.834 1.816 1.386 2.389.572 5.448-1.816 6.834l-.098.057c-.79.458-1.652.676-2.504.676z"/><path d="m384.16 88.436c-1.732 0-3.416-.901-4.341-2.511-1.375-2.395-.549-5.451 1.846-6.826l.099-.057c2.397-1.375 5.45-.548 6.826 1.846 1.375 2.395.549 5.451-1.846 6.826l-.099.057c-.785.45-1.641.665-2.485.665z"/></g><g><path d="m409.062 74.059c-1.725 0-3.402-.894-4.33-2.492-1.386-2.389-.572-5.448 1.816-6.834l.098-.057c2.392-1.386 5.448-.57 6.834 1.816 1.386 2.389.572 5.448-1.816 6.834l-.098.057c-.79.458-1.652.676-2.504.676z"/><path d="m384.16 88.436c-1.732 0-3.416-.901-4.341-2.511-1.375-2.395-.549-5.451 1.846-6.826l.099-.057c2.397-1.375 5.45-.548 6.826 1.846 1.375 2.395.549 5.451-1.846 6.826l-.099.057c-.785.45-1.641.665-2.485.665z"/></g><g><path d="m396.655 66.898c-2.762 0-5-2.238-5-5v-.114c0-2.762 2.238-5 5-5s5 2.238 5 5v.114c0 2.762-2.238 5-5 5z"/><path d="m396.655 95.651c-2.762 0-5-2.238-5-5v-.113c0-2.762 2.238-5 5-5s5 2.238 5 5v.113c0 2.762-2.238 5-5 5z"/></g></g><g><g><path d="m103.572 52.584c-.845 0-1.7-.214-2.485-.665l-.099-.057c-2.395-1.375-3.221-4.432-1.846-6.826 1.376-2.395 4.43-3.223 6.826-1.846l.099.057c2.395 1.375 3.221 4.432 1.846 6.826-.925 1.61-2.608 2.511-4.341 2.511z"/><path d="m128.474 66.961c-.845 0-1.7-.214-2.485-.665l-.099-.057c-2.395-1.375-3.221-4.432-1.846-6.826 1.376-2.395 4.431-3.223 6.826-1.846l.099.057c2.395 1.375 3.221 4.432 1.846 6.826-.925 1.61-2.609 2.511-4.341 2.511z"/></g><g><path d="m128.385 52.584c-1.732 0-3.416-.901-4.341-2.511-1.375-2.395-.549-5.451 1.846-6.826l.099-.057c2.397-1.375 5.451-.548 6.826 1.846 1.375 2.395.549 5.451-1.846 6.826l-.099.057c-.785.45-1.641.665-2.485.665z"/><path d="m103.483 66.961c-1.732 0-3.416-.901-4.341-2.511-1.375-2.395-.549-5.451 1.846-6.826l.099-.057c2.397-1.374 5.451-.547 6.826 1.846 1.375 2.395.549 5.451-1.846 6.826l-.099.057c-.784.45-1.641.665-2.485.665z"/></g><g><path d="m128.385 52.584c-1.732 0-3.416-.901-4.341-2.511-1.375-2.395-.549-5.451 1.846-6.826l.099-.057c2.397-1.375 5.451-.548 6.826 1.846 1.375 2.395.549 5.451-1.846 6.826l-.099.057c-.785.45-1.641.665-2.485.665z"/><path d="m103.483 66.961c-1.732 0-3.416-.901-4.341-2.511-1.375-2.395-.549-5.451 1.846-6.826l.099-.057c2.397-1.374 5.451-.547 6.826 1.846 1.375 2.395.549 5.451-1.846 6.826l-.099.057c-.784.45-1.641.665-2.485.665z"/></g><g><path d="m115.979 45.423c-2.762 0-5-2.238-5-5v-.113c0-2.762 2.238-5 5-5s5 2.238 5 5v.113c0 2.762-2.239 5-5 5z"/><path d="m115.979 74.177c-2.762 0-5-2.238-5-5v-.114c0-2.762 2.238-5 5-5s5 2.238 5 5v.114c0 2.761-2.239 5-5 5z"/></g></g><g><g><path d="m190.863 443.083c-.863 0-1.738-.224-2.536-.694l-.098-.058c-2.378-1.403-3.169-4.469-1.766-6.848 1.403-2.377 4.467-3.171 6.848-1.766l.098.058c2.378 1.403 3.169 4.469 1.766 6.848-.933 1.58-2.6 2.46-4.312 2.46z"/><path d="m215.765 457.46c-.863 0-1.738-.224-2.536-.694l-.098-.058c-2.378-1.403-3.169-4.469-1.766-6.848 1.403-2.378 4.467-3.17 6.848-1.766l.098.058c2.378 1.403 3.169 4.469 1.766 6.848-.933 1.58-2.6 2.46-4.312 2.46z"/></g><g><path d="m215.677 443.083c-1.712 0-3.379-.88-4.312-2.46-1.403-2.379-.612-5.444 1.766-6.848l.098-.058c2.381-1.404 5.445-.61 6.848 1.766 1.403 2.379.612 5.444-1.766 6.848l-.098.058c-.798.47-1.673.694-2.536.694z"/><path d="m190.774 457.46c-1.72 0-3.393-.888-4.322-2.479-1.393-2.385-.589-5.447 1.795-6.84l.099-.058c2.386-1.392 5.447-.587 6.84 1.795 1.393 2.385.589 5.447-1.795 6.84l-.099.058c-.793.463-1.661.684-2.518.684z"/></g><g><path d="m215.677 443.083c-1.712 0-3.379-.88-4.312-2.46-1.403-2.379-.612-5.444 1.766-6.848l.098-.058c2.381-1.404 5.445-.61 6.848 1.766 1.403 2.379.612 5.444-1.766 6.848l-.098.058c-.798.47-1.673.694-2.536.694z"/><path d="m190.774 457.46c-1.72 0-3.393-.888-4.322-2.479-1.393-2.385-.589-5.447 1.795-6.84l.099-.058c2.386-1.392 5.447-.587 6.84 1.795 1.393 2.385.589 5.447-1.795 6.84l-.099.058c-.793.463-1.661.684-2.518.684z"/></g><g><path d="m203.27 435.922c-2.762 0-5-2.238-5-5v-.114c0-2.762 2.238-5 5-5s5 2.238 5 5v.114c0 2.762-2.239 5-5 5z"/><path d="m203.27 464.676c-2.762 0-5-2.238-5-5v-.114c0-2.762 2.238-5 5-5s5 2.238 5 5v.114c0 2.762-2.239 5-5 5z"/></g></g></g></g></g></svg>