<svg id="Capa_1" enable-background="new 0 0 512.018 512.018" height="512" viewBox="0 0 512.018 512.018" width="512" xmlns="http://www.w3.org/2000/svg"><g><g><path d="m219.196 446.145v-62.658c4.404.442 8.849.681 13.282.681 27.334 0 52.74-8.401 73.78-22.751l9.484 9.492c-1.881 2.699-2.904 5.897-2.904 9.257 0 4.34 1.689 8.42 4.758 11.489l8.103 8.103c3.167 3.167 7.328 4.751 11.488 4.751 3.245 0 6.484-.977 9.258-2.904l7.626 7.632c-1.641 2.713-2.536 5.82-2.536 9.071 0 4.697 1.83 9.114 5.151 12.437l70.139 70.139c7.181 7.181 16.729 11.136 26.884 11.136s19.703-3.955 26.884-11.137v.001c14.824-14.824 14.824-38.944 0-53.769l-70.139-70.14c-5.825-5.826-14.744-6.683-21.503-2.612l-7.491-7.496c5.316-6.377 4.99-15.897-.992-21.88l-8.103-8.102c-3.068-3.069-7.148-4.759-11.489-4.759-3.845 0-7.482 1.331-10.396 3.767l-9.37-9.377c14.285-21.01 22.643-46.359 22.643-73.624 0-13.441-2.036-26.414-5.806-38.634l.013-100.446c22.85 11.413 48.65 29.099 48.654 41.543-4.153 5.753-5.094 14.669-1.255 20.615 3.773 5.846 10.621 8.724 17.436 7.336 27.19-5.538 42.165-23.484 42.165-50.533 0-42.213-32.1-61.634-69.269-84.122-19.711-11.927-42.053-25.444-61.421-43.943-4.966-4.742-11.979-6.011-18.299-3.308-6.334 2.709-10.269 8.67-10.269 15.556v46.243c0 4.143 3.358 7.5 7.5 7.5s7.5-3.357 7.5-7.5v-46.243c0-1.045.635-1.536 1.168-1.765.762-.325 1.447-.201 2.04.364 20.557 19.634 43.647 33.604 64.019 45.93 34.658 20.969 62.033 37.532 62.033 71.288 0 19.98-9.865 31.702-30.159 35.835-.292.059-1.186.242-1.84-.772-.285-.441-.654-1.332.076-2.343 2.371-3.282 3.573-6.668 3.573-10.062 0-13.678-11.548-27.66-35.303-42.748-16.228-10.307-32.202-17.236-32.874-17.526-2.317-.998-4.983-.766-7.092.62-2.109 1.387-3.379 3.741-3.379 6.266l-.011 80.004c-6.249-9.71-13.74-18.548-22.25-26.285v-55.536c0-4.143-3.358-7.5-7.5-7.5s-7.5 3.357-7.5 7.5v43.759c-20.931-14.119-46.132-22.37-73.224-22.37-14.367 0-28.511 2.362-41.908 6.873v-109.511c0-5.339-2.393-10.312-6.564-13.643-4.172-3.332-9.551-4.563-14.757-3.385l-100.165 22.719c-8.006 1.815-13.598 8.816-13.598 17.026v81.27c-19.79 1.903-35.18 15.429-35.18 31.778 0 17.648 17.933 32.006 39.975 32.006 21.268 0 38.436-13.429 39.897-30.39l.043-73.924 45.862-9.132v38.741c-19.925 1.801-35.462 15.377-35.462 31.804 0 11.358 7.418 21.638 19.113 27.344-14.212 17.864-23.619 39.211-27.053 61.947-.618 4.096 2.201 7.918 6.296 8.536 4.095.616 7.917-2.2 8.536-6.296 8.502-56.305 57.926-98.764 114.965-98.764 64.115 0 116.277 52.162 116.277 116.277s-52.161 116.276-116.276 116.276c-4.438 0-8.889-.259-13.282-.758v-21.557c4.149.548 8.346.843 12.542.843 52.275-.001 94.804-42.53 94.803-94.804 0-52.275-42.528-94.804-94.803-94.804s-94.804 42.528-94.804 94.804c0 21.845 7.352 42.575 20.873 59.354l-22.164 5.027c-9.404-14.134-15.666-30.345-18.161-47.093-.61-4.097-4.425-6.916-8.523-6.313-4.097.61-6.923 4.426-6.313 8.523 2.541 17.054 8.548 33.61 17.485 48.401l-22.421 5.085c-8.005 1.817-13.597 8.818-13.597 17.027v81.27c-19.79 1.903-35.18 15.429-35.18 31.778 0 17.648 17.933 32.006 39.975 32.006 21.268 0 38.436-13.429 39.897-30.39l.043-73.925 45.862-9.131v38.741c-19.925 1.801-35.462 15.377-35.462 31.804 0 17.648 17.933 32.006 39.975 32.006 21.026.001 38.434-14.249 39.971-30.916zm-156.685-308.339c2.068.132 4.097-.599 5.607-2.017 1.511-1.418 2.368-3.397 2.368-5.469v-88.626c0-1.156.787-2.142 1.915-2.397l100.165-22.718c1.005-.229 1.733.2 2.079.477.346.275.925.893.925 1.922v115.611c-10.428 5.015-20.221 11.421-29.087 19.115-2.09 1.814-4.114 3.691-6.076 5.623-8.89-2.776-14.785-8.882-14.785-15.478 0-9.218 13.898-16.913 27.436-16.913 2.079.15 4.119-.577 5.641-1.995 1.522-1.419 2.386-3.405 2.386-5.486v-55.293c0-2.246-1.006-4.373-2.743-5.798s-4.019-1.993-6.222-1.558l-60.86 12.119c-3.507.698-6.033 3.775-6.035 7.352l-.046 79.712c-.969 8.716-12.052 15.76-24.897 15.76-13.538 0-24.975-7.788-24.975-17.006 0-9.22 13.667-16.937 27.204-16.937zm119.179 290.337c2.079.149 4.115-.58 5.636-1.999 1.521-1.418 2.384-3.404 2.384-5.483v-55.29c0-2.246-1.006-4.373-2.743-5.798-1.735-1.425-4.019-1.994-6.222-1.558l-60.858 12.117c-3.507.698-6.034 3.775-6.036 7.352l-.046 79.713c-.969 8.716-12.052 15.76-24.897 15.76-13.538 0-24.975-7.788-24.975-17.006 0-9.219 13.667-16.936 27.204-16.936 2.067.126 4.097-.599 5.608-2.017s2.368-3.397 2.368-5.469v-88.627c0-1.156.788-2.143 1.915-2.398l100.165-22.717c1.005-.227 1.734.2 2.079.477.346.275.925.893.925 1.922v125.203c-.01.103-.018.206-.024.31-.513 9.022-11.706 16.363-24.951 16.363-13.538 0-24.975-7.788-24.975-17.006s13.905-16.913 27.443-16.913zm80.01-249.196c29.196 11.874 49.841 40.536 49.841 73.946 0 5.027-.489 9.94-1.382 14.712-6.225 3.333-12.89 6.135-19.828 8.32-15.581 4.911-31.523 6.454-46.105 4.461-4.104-.574-7.886 2.312-8.447 6.415-.561 4.104 2.312 7.886 6.416 8.446 4.802.656 9.719.982 14.712.982 12.434 0 25.319-2.022 37.932-5.998 3.053-.962 6.062-2.031 9.015-3.2-12.819 26.969-40.321 45.664-72.116 45.665-4.206 0-8.41-.348-12.542-.999v-11.51c0-5.339-2.393-10.312-6.564-13.643-4.172-3.332-9.551-4.563-14.757-3.385l-23.388 5.304c-14.541-14.973-22.551-34.662-22.552-55.571 0-44.004 35.8-79.804 79.804-79.804 1.501 0 2.99.05 4.47.132-14.82 7.405-27.49 17.345-36.685 28.991-13.645 17.281-18.176 36.271-12.758 53.474 3.042 9.647 8.958 17.946 17.582 24.666 1.37 1.067 2.993 1.584 4.604 1.584 2.233 0 4.443-.992 5.921-2.891 2.546-3.268 1.961-7.979-1.306-10.525-6.181-4.816-10.385-10.651-12.495-17.343-3.88-12.317-.249-26.406 10.224-39.669 11.137-14.104 30.12-26.168 50.404-32.56zm56.549 173.248c4.878-4.219 9.441-8.791 13.652-13.674l7.923 7.929-13.663 13.663zm19.821 36.955c-.486.486-1.277.486-1.764 0l-8.103-8.102c-.302-.302-.365-.646-.365-.883 0-.235.063-.58.365-.881l31.793-31.794c.302-.302.646-.364.881-.364.236 0 .58.063.882.365l8.103 8.103c.486.485.486 1.277 0 1.763zm19.173 2.04 13.663-13.664 7.059 7.065-13.664 13.664zm10.05 28.946c-.659-.659-.758-1.429-.758-1.829s.099-1.17.758-1.83l28.896-28.896c.66-.66 1.43-.759 1.83-.759s1.17.099 1.83.759l8.482 8.482-32.555 32.555zm102.694 70.139c-4.348 4.349-10.128 6.743-16.277 6.743s-11.93-2.395-16.278-6.743l-51.05-51.05 32.555-32.555 51.051 51.051c4.348 4.348 6.743 10.128 6.743 16.277-.001 6.149-2.396 11.929-6.744 16.277z"/></g></g></svg>