<?xml version="1.0"?>
<svg xmlns="http://www.w3.org/2000/svg" xmlns:xlink="http://www.w3.org/1999/xlink" xmlns:svgjs="http://svgjs.com/svgjs" version="1.1" width="512" height="512" x="0" y="0" viewBox="0 0 62 62" style="enable-background:new 0 0 512 512" xml:space="preserve" class=""><g><g xmlns="http://www.w3.org/2000/svg"><g><path d="m28 15h6v4h-6z" fill="#19ff83" data-original="#f0bc5e"/></g><g><path d="m48 21h8v16h-8z" fill="#19ff83" data-original="#f0bc5e"/></g><g><path d="m28 54h2v4h-2z" fill="#000000" data-original="#000000" class=""/><path d="m32 54h2v4h-2z" fill="#000000" data-original="#000000" class=""/><path d="m12 54h2v4h-2z" fill="#000000" data-original="#000000" class=""/><path d="m16 54h2v4h-2z" fill="#000000" data-original="#000000" class=""/><path d="m28 14h6v2h-6z" fill="#000000" data-original="#000000" class=""/><path d="m28 18h6v2h-6z" fill="#000000" data-original="#000000" class=""/><path d="m48 20h8v2h-8z" fill="#000000" data-original="#000000" class=""/><path d="m48 24h8v2h-8z" fill="#000000" data-original="#000000" class=""/><path d="m26 26h2v22h-2z" fill="#000000" data-original="#000000" class=""/><path d="m22 39h2v9h-2z" fill="#000000" data-original="#000000" class=""/><path d="m34 26h2v16h-2z" fill="#000000" data-original="#000000" class=""/><path d="m60 40v-24h-4v-4h-3v-4h-2v4h-3v4h-4v28h-4v-22h-2v-12h-4v-6h-2v-4h-2v4h-2v6h-4v12h-2v12.586l-3.367 3.367-1.633-.182v-18.771h-2v-4h-10v4h-2v17.216l-3-.333v26.117h62v-22zm-10-26h4v2h-4zm-4 4h12v22h-6v12h-2v-8h-4zm-10 34v8h-10v-8zm0-2v-4h12v6h-6v8h-4v-10zm8 4h10v6h-10zm-10-10v6h-2v-26h6v20zm-4-38h2v4h-2zm-4 6h10v10h-10zm-2 23.414v-11.414h6v26h-6v10h-2v-10h-2v-10.586zm-4 16.586v8h-10v-8zm-5-31v8.42c-3.77-1.917-6.929-4.795-9.188-8.409l-.008-.011zm-8-4h6v2h-6zm-2 6.374c2.56 3.585 5.983 6.41 10 8.258v5.918l-10-1.112zm13 16.522v1.987l-16-1.778v-1.988zm-16 2.221 16 1.778v6.105h-10v10h-6zm58 17.883h-4v-8h-2v-10h6z" fill="#000000" data-original="#000000" class=""/><path d="m56 44h2v6h-2z" fill="#000000" data-original="#000000" class=""/><path d="m48 28h8v2h-8z" fill="#000000" data-original="#000000" class=""/><path d="m48 32h8v2h-8z" fill="#000000" data-original="#000000" class=""/><path d="m48 36h8v2h-8z" fill="#000000" data-original="#000000" class=""/><path d="m48 40h2v2h-2z" fill="#000000" data-original="#000000" class=""/><path d="m46 56h6v2h-6z" fill="#000000" data-original="#000000" class=""/></g></g></g></svg>
