<?xml version="1.0"?>
<svg xmlns="http://www.w3.org/2000/svg" xmlns:xlink="http://www.w3.org/1999/xlink" xmlns:svgjs="http://svgjs.com/svgjs" version="1.1" width="512" height="512" x="0" y="0" viewBox="0 0 496 496" style="enable-background:new 0 0 512 512" xml:space="preserve"><g>
<path xmlns="http://www.w3.org/2000/svg" style="" d="M496,352H96v-80h8c13.232,0,24-10.768,24-24s-10.768-24-24-24h-8v-80h400V352z" fill="#19ff83" data-original="#f0bc5e"/>
<rect xmlns="http://www.w3.org/2000/svg" x="240" y="144" width="16" height="32" fill="#000000" data-original="#000000"/>
<rect xmlns="http://www.w3.org/2000/svg" x="240" y="192" width="16" height="16" fill="#000000" data-original="#000000"/>
<rect xmlns="http://www.w3.org/2000/svg" x="240" y="224" width="16" height="16" fill="#000000" data-original="#000000"/>
<rect xmlns="http://www.w3.org/2000/svg" x="240" y="256" width="16" height="16" fill="#000000" data-original="#000000"/>
<rect xmlns="http://www.w3.org/2000/svg" x="240" y="288" width="16" height="16" fill="#000000" data-original="#000000"/>
<rect xmlns="http://www.w3.org/2000/svg" x="240" y="320" width="16" height="32" fill="#000000" data-original="#000000"/>
<rect xmlns="http://www.w3.org/2000/svg" x="136" y="176" width="16" height="16" fill="#000000" data-original="#000000"/>
<rect xmlns="http://www.w3.org/2000/svg" x="168" y="176" width="16" height="16" fill="#000000" data-original="#000000"/>
<rect xmlns="http://www.w3.org/2000/svg" x="200" y="176" width="16" height="16" fill="#000000" data-original="#000000"/>
<rect xmlns="http://www.w3.org/2000/svg" x="384" y="304" width="16" height="16" fill="#000000" data-original="#000000"/>
<rect xmlns="http://www.w3.org/2000/svg" x="352" y="304" width="16" height="16" fill="#000000" data-original="#000000"/>
<rect xmlns="http://www.w3.org/2000/svg" x="416" y="304" width="16" height="16" fill="#000000" data-original="#000000"/>
<rect xmlns="http://www.w3.org/2000/svg" x="448" y="304" width="16" height="16" fill="#000000" data-original="#000000"/>
<rect xmlns="http://www.w3.org/2000/svg" x="160" y="208" width="64" height="16" fill="#000000" data-original="#000000"/>
<rect xmlns="http://www.w3.org/2000/svg" x="160" y="272" width="64" height="16" fill="#000000" data-original="#000000"/>
<rect xmlns="http://www.w3.org/2000/svg" x="160" y="240" width="64" height="16" fill="#000000" data-original="#000000"/>
<rect xmlns="http://www.w3.org/2000/svg" x="376" y="192" width="88" height="16" fill="#000000" data-original="#000000"/>
<rect xmlns="http://www.w3.org/2000/svg" x="272" y="192" width="88" height="16" fill="#000000" data-original="#000000"/>
<rect xmlns="http://www.w3.org/2000/svg" x="272" y="224" width="192" height="16" fill="#000000" data-original="#000000"/>
<rect xmlns="http://www.w3.org/2000/svg" x="272" y="256" width="192" height="16" fill="#000000" data-original="#000000"/>
<path xmlns="http://www.w3.org/2000/svg" d="M272,416H16V72h256v72h16V40c0-22.056-17.944-40-40-40H40C17.944,0,0,17.944,0,40v416c0,22.056,17.944,40,40,40h208  c22.056,0,40-17.944,40-40V352h-16V416z M40,16h208c13.232,0,24,10.768,24,24v16H16V40C16,26.768,26.768,16,40,16z M248,480H40  c-13.232,0-24-10.768-24-24v-24h256v24C272,469.232,261.232,480,248,480z" fill="#000000" data-original="#000000"/>
<rect xmlns="http://www.w3.org/2000/svg" x="104" y="448" width="80" height="16" fill="#000000" data-original="#000000"/>
<rect xmlns="http://www.w3.org/2000/svg" x="32" y="88" width="16" height="16" fill="#000000" data-original="#000000"/>
<rect xmlns="http://www.w3.org/2000/svg" x="32" y="120" width="16" height="280" fill="#000000" data-original="#000000"/>
<rect xmlns="http://www.w3.org/2000/svg" x="160" y="304" width="64" height="16" fill="#000000" data-original="#000000"/>
<rect xmlns="http://www.w3.org/2000/svg" x="128" y="304" width="16" height="16" fill="#000000" data-original="#000000"/>
<g xmlns="http://www.w3.org/2000/svg">
</g>
<g xmlns="http://www.w3.org/2000/svg">
</g>
<g xmlns="http://www.w3.org/2000/svg">
</g>
<g xmlns="http://www.w3.org/2000/svg">
</g>
<g xmlns="http://www.w3.org/2000/svg">
</g>
<g xmlns="http://www.w3.org/2000/svg">
</g>
<g xmlns="http://www.w3.org/2000/svg">
</g>
<g xmlns="http://www.w3.org/2000/svg">
</g>
<g xmlns="http://www.w3.org/2000/svg">
</g>
<g xmlns="http://www.w3.org/2000/svg">
</g>
<g xmlns="http://www.w3.org/2000/svg">
</g>
<g xmlns="http://www.w3.org/2000/svg">
</g>
<g xmlns="http://www.w3.org/2000/svg">
</g>
<g xmlns="http://www.w3.org/2000/svg">
</g>
<g xmlns="http://www.w3.org/2000/svg">
</g>
</g></svg>
