<svg width="100" height="100" viewBox="0 0 100 100" fill="none" xmlns="http://www.w3.org/2000/svg">
<path fill-rule="evenodd" clip-rule="evenodd" d="M0 50C0 22.3858 22.3858 0 50 0C77.6142 0 100 22.3858 100 50C100 77.6142 77.6142 100 50 100C22.3858 100 0 77.6142 0 50ZM69.0625 35.9375C71.25 35.625 73.125 35.3125 75 34.375C73.75 36.5625 71.875 38.4375 69.6875 39.6875C70.3125 54.375 59.6875 70.3125 40.625 70.3125C35 70.3125 29.6875 68.4375 25 65.625C30.3125 66.25 35.9375 64.6875 39.6875 61.875C35 61.875 31.25 58.75 30 54.6875C31.5625 55 33.125 54.6875 34.6875 54.375C30 53.125 26.5625 48.75 26.5625 44.0625C28.125 44.6875 29.6875 45.3125 31.25 45.3125C26.875 42.1875 25.3125 36.25 28.125 31.5625C33.4375 37.8125 40.9375 41.875 49.375 42.1875C47.8125 35.9375 52.8125 29.6875 59.375 29.6875C62.1875 29.6875 65 30.9375 66.875 32.8125C69.375 32.1875 71.5625 31.5625 73.4375 30.3125C72.8125 32.8125 71.25 34.6875 69.0625 35.9375Z" fill="white"/>
</svg>
